<svg width="14" height="14" viewBox="0 0 14 14" fill="none" xmlns="http://www.w3.org/2000/svg">
<path d="M7.00002 14L9.65162 12.7805C12.2629 11.5796 13.5514 8.60535 12.6414 5.87896C12.2241 4.6285 12.2069 3.27906 12.5923 2.01838L12.8591 1.14576L11.7133 0C10.1422 0.907102 8.57111 0.907102 7.00002 0C5.42893 0.907102 3.85781 0.907102 2.28672 0L1.14094 1.14579L1.40773 2.01841C1.79317 3.27906 1.77599 4.62853 1.35865 5.87899C0.448674 8.60535 1.73714 11.5796 4.34844 12.7806L7.00002 14Z" fill="#1FD1D1"/>
<path d="M7 14L9.6516 12.7805C12.2629 11.5796 13.5513 8.60535 12.6414 5.87896C12.224 4.6285 12.2069 3.27906 12.5923 2.01838L12.8591 1.14576L11.7133 0C10.1422 0.907102 8.57109 0.907102 7 0C7 1.59876 7 14 7 14Z" fill="#16A2A2"/>
<path d="M8.93825 6.94532L9.87753 8.60664L7.96916 8.62387L7.00004 10.268L6.03096 8.62387L4.12256 8.60664L5.06184 6.94532L4.12256 5.284L6.03096 5.26678L7.00004 3.62268L7.96916 5.26678L9.87753 5.284L8.93825 6.94532Z" fill="#F1F1F2"/>
<path d="M8.93821 6.94532L9.87749 8.60664L7.96912 8.62387L7 10.268V3.62268L7.96912 5.26678L9.87749 5.284L8.93821 6.94532Z" fill="#E6E6E6"/>
</svg>
