<svg width="18" height="8" viewBox="0 0 18 8" fill="none" xmlns="http://www.w3.org/2000/svg">
<path d="M17.3672 3.43281L13.5125 0.747656C13.4445 0.689062 13.3578 0.65625 13.2664 0.65625C13.2664 3.14843 13.2664 0.65625 13.2656 3.10938H0.5625C0.459375 3.10938 0.375 3.19375 0.375 3.29688V4.70312C0.375 4.80625 0.459375 4.89062 0.5625 4.89062L13.3344 4.92011C13.3344 7.34375 13.3344 4.92011 13.3344 7.34375C13.3789 7.34375 13.4234 7.32734 13.4562 7.29688L17.3672 4.56719C17.4483 4.49663 17.5134 4.40949 17.558 4.31164C17.6025 4.2138 17.6256 4.10752 17.6256 4C17.6256 3.89248 17.6025 3.7862 17.558 3.68836C17.5134 3.59051 17.4483 3.50337 17.3672 3.43281Z" fill="#CDC6CC"/>
</svg>
