<svg width="64" height="64" viewBox="0 0 64 64" fill="none" xmlns="http://www.w3.org/2000/svg">
<path opacity="0.9" d="M2.54209 17.6367C-0.453781 22.5615 -0.769531 31.0884 1.42497 36.4187C3.34709 41.0876 7.17071 45.4698 12.19 46.0188C14.0357 46.2207 15.9222 45.8908 17.749 46.2236C24.0311 47.3676 26.3679 55.1098 31.2502 59.2253C34.6479 62.0895 39.3624 63.103 43.7719 62.5512C48.1814 61.9995 52.3097 60.0058 55.9439 57.4482C58.8135 55.4286 61.4984 52.9455 62.9144 49.7348C65.8824 43.005 62.3907 34.9222 56.966 29.955C55.2765 28.4079 53.3934 27.0432 51.9817 25.2391C50.5699 23.435 49.6717 21.0272 50.3443 18.8374C50.8809 17.0902 52.3254 15.7359 52.8727 13.992C53.6174 11.619 52.4933 8.95687 50.6474 7.29C48.8015 5.62312 46.3589 4.78512 43.9392 4.21C33.8013 1.8 11.5863 2.7695 2.54209 17.6367V17.6367Z" fill="url(#paint0_linear)"/>
<path d="M57 42C57 43.38 56.44 44.63 55.54 45.54C54.63 46.44 53.38 47 52 47H43L39 38V50L42.43 53.43L32.01 54.53H32L21.57 53.43L25 50V38L21 47H12C10.62 47 9.37 46.44 8.46002 45.54C7.56 44.63 7 43.38 7 42H17L19.09 36.27C19.94 33.91 21.83 32.14 24.13 31.39C24.14 31.38 24.16 31.38 24.17 31.38C24.94 31.13 25.76 31 26.6 31H37.4C38.24 31 39.06 31.13 39.83 31.38C39.84 31.38 39.86 31.38 39.87 31.39C42.17 32.14 44.06 33.91 44.91 36.27L47 42H57Z" fill="white"/>
<path d="M46 58.3701C46 59.1001 45.7 59.7501 45.23 60.2301C44.75 60.7001 44.1 61.0001 43.37 61.0001H12.26C9.90997 61.0001 8 59.0901 8 56.7401C8 54.3601 9.92999 52.4801 12.25 52.4801C12.4 52.4801 12.55 52.4801 12.71 52.5001L21.57 53.4301L32 54.5301H32.01L43.64 55.7501C44.98 55.8901 46 57.0201 46 58.3701Z" fill="white"/>
<path d="M56.0002 56.7401C56.0002 59.0901 54.0902 61.0001 51.7402 61.0001H43.3701C44.1001 61.0001 44.7501 60.7001 45.2301 60.2301C45.7001 59.7501 46.0001 59.1001 46.0001 58.3701C46.0001 57.0201 44.9801 55.8901 43.6401 55.7501L32.01 54.5301L42.4301 53.4301L51.2901 52.5001C51.4502 52.4801 51.6001 52.4801 51.7502 52.4801C54.0702 52.4801 56.0002 54.3601 56.0002 56.7401Z" fill="white"/>
<path d="M37 14.96V15C37 21.22 32.61 26.32 32.06 26.94C32.06 26.95 32.05 26.96 32.04 26.96C32.03 26.96 32.03 26.96 32.03 26.96C32.02 26.97 32.02 26.98 32.02 26.98C32.02 26.99 32.02 26.99 32.01 26.99C32 27 32 27 32 27C32 27 31.99 26.99 31.98 26.98C31.98 26.98 31.98 26.97 31.97 26.96C31.97 26.96 31.97 26.96 31.96 26.96C31.95 26.96 31.94 26.95 31.94 26.94C31.39 26.32 27 21.22 27 15V14.96C27.02 8.34998 32 3 32 3C32 3 36.98 8.34998 37 14.96V14.96Z" fill="white"/>
<path d="M56 27C56 27 50.63 32 44 32C42.55 32 41.16 31.76 39.87 31.39C39.86 31.38 39.84 31.38 39.83 31.38C35.26 30.03 32 27 32 27C32 27 32 27 32.01 26.99C32.02 26.99 32.02 26.99 32.02 26.98H32.03V27C32.03 27 39.36 26.74 44.05 22.05L44.1 22C50.68 22.05 56 27 56 27V27Z" fill="white"/>
<path d="M49 10.03C49 10.03 48.74 17.3101 44.1 22.0001L44.05 22.0501C39.36 26.7401 32.03 27.0001 32.03 27.0001C32.03 27.0001 32.03 26.9901 32.03 26.98C32.03 26.98 32.04 26.97 32.04 26.96C32.05 26.96 32.06 26.9501 32.06 26.9401C32.61 26.3201 37 21.22 37 15.0001V14.96C41.69 10.29 49 10.03 49 10.03V10.03Z" fill="white"/>
<path d="M32 27C32 27 28.74 30.03 24.17 31.38C24.16 31.38 24.14 31.38 24.13 31.39C22.84 31.76 21.45 32 20 32C13.37 32 8 27 8 27C8 27 13.32 22.05 19.9 22L19.95 22.05C24.64 26.74 31.97 27 31.97 27C31.97 27 31.97 26.99 31.97 26.98H31.98C31.99 26.99 32 27 32 27V27Z" fill="white"/>
<path d="M31.97 26.98V27.0001C31.97 27.0001 24.64 26.7401 19.95 22.0501L19.9 22.0001C15.26 17.3101 15 10.03 15 10.03C15 10.03 22.31 10.29 27 14.96V15.0001C27 21.22 31.39 26.3201 31.94 26.9401C31.94 26.9501 31.95 26.96 31.96 26.96C31.96 26.97 31.97 26.98 31.97 26.98V26.98Z" fill="white"/>
<path d="M16.2998 41H7C6.44727 41 6 41.4478 6 42C6 43.5962 6.62109 45.103 7.75684 46.251C8.89746 47.3789 10.4043 48 12 48H21C21.3955 48 21.7529 47.7671 21.9141 47.4063L24 42.7124V49.586L21.2024 52.384L12.8145 51.501C11.3389 51.3477 9.84863 51.8276 8.74121 52.8242C7.63477 53.8208 7 55.2466 7 56.7363C7 59.6387 9.36133 62 12.2637 62H20.6299H43.3691H51.7402C54.6406 62 57 59.6406 57 56.7402C57 53.8399 54.6445 51.48 51.75 51.48C51.5586 51.48 51.3691 51.4824 51.1856 51.5054L42.8012 52.3876L40 49.586V42.7124L42.0859 47.4063C42.2471 47.7671 42.6045 48 43 48H52C53.5957 48 55.1025 47.3789 56.251 46.2432C57.3789 45.103 58 43.5962 58 42C58 41.4478 57.5527 41 57 41H47.7002L45.8516 35.9316C45.4517 34.8209 44.8257 33.8424 44.0638 32.9972C50.9766 32.9661 56.4509 27.9461 56.6816 27.7319C56.8848 27.5425 57 27.2773 57 27C57 26.7222 56.8848 26.457 56.6816 26.2681C56.4751 26.0764 52.0299 22.0153 46.1205 21.1655C49.7187 16.3809 49.9894 10.3472 49.999 10.0654C50.0088 9.78809 49.9033 9.51904 49.707 9.32275C49.5107 9.12646 49.2314 9.01025 48.9648 9.03027C48.6819 9.0404 42.6299 9.3117 37.8412 12.9272C37.0072 6.99371 32.9254 2.52625 32.7324 2.31885C32.3535 1.91162 31.6465 1.91162 31.2676 2.31885C31.0747 2.52625 26.9928 6.99372 26.1588 12.9272C21.3701 9.31171 15.3181 9.04041 15.0351 9.03028C14.7568 9.0127 14.4883 9.12647 14.293 9.32276C14.0967 9.51905 13.9912 9.78809 14.001 10.0654C14.0106 10.3465 14.2796 16.3474 17.8878 21.1644C11.9744 22.0116 7.52502 26.0764 7.31835 26.2681C7.11523 26.457 7 26.7222 7 27C7 27.2773 7.11523 27.5425 7.31836 27.7319C7.54907 27.9461 13.023 32.9656 19.9356 32.9971C19.1746 33.8413 18.5494 34.8185 18.1504 35.9272L16.2998 41ZM20.6299 60H12.2637C10.4639 60 9 58.5361 9 56.7363C9 55.7993 9.38379 54.9375 10.0801 54.3106C10.6875 53.7632 11.4492 53.4717 12.252 53.4717C12.3691 53.4717 12.4873 53.4776 12.6055 53.4902L43.5401 56.7466C44.3721 56.834 45 57.5318 45 58.3687C45 59.2681 44.2686 60 43.3691 60H20.6299ZM51.4141 53.4922C51.5303 53.4776 51.6397 53.4795 51.75 53.48C53.542 53.48 55 54.9424 55 56.7402C55 58.5376 53.5381 60 51.7402 60H46.5951C46.8455 59.5072 47 58.9582 47 58.3687C47 56.5054 45.6025 54.9526 43.749 54.7573L41.5713 54.5281L51.4141 53.4922ZM46.0606 42.3428C46.2041 42.7373 46.5801 43 47 43H55.875C55.6992 43.6856 55.3447 44.3154 54.8369 44.8291C54.0732 45.584 53.0654 46 52 46H43.6494L39.9141 37.5938C39.7217 37.1626 39.2627 36.9209 38.792 37.022C38.3301 37.1196 38 37.5278 38 38V50C38 50.2652 38.1055 50.5195 38.293 50.707L40.2425 52.6569L32.0172 53.5224L23.761 52.6533L25.707 50.707C25.8945 50.5195 26 50.2652 26 50V38C26 37.5278 25.6699 37.1196 25.208 37.022C24.7393 36.9209 24.2773 37.1626 24.0859 37.5938L20.3506 46H12C10.9346 46 9.92676 45.584 9.1709 44.8369C8.65723 44.3179 8.30078 43.686 8.125 43H17C17.4199 43 17.7959 42.7373 17.9394 42.3428L20.0312 36.6084C21.0225 33.8521 23.6621 32 26.5996 32H37.4004C40.3379 32 42.9775 33.8521 43.9707 36.6128L46.0606 42.3428ZM29.6093 30C30.6533 29.3555 31.471 28.7416 32 28.3139C32.529 28.7416 33.3467 29.3555 34.3907 30H29.6093ZM44 31C40.0767 31 36.5754 29.0916 34.5391 27.6982C37.1319 27.2324 41.2518 26.0363 44.4692 23.0159C48.9067 23.1868 52.7535 25.7161 54.4277 27C52.6963 28.3291 48.6377 31 44 31ZM43.3428 21.3428C40.552 24.1342 36.7011 25.2564 34.279 25.7056C35.7877 23.5374 37.8557 19.7827 37.9818 15.4117C41.2482 12.3558 45.7896 11.4175 47.8896 11.1411C47.6074 13.2935 46.6318 18.0186 43.3428 21.3428V21.3428ZM32.001 4.5708C33.3301 6.29834 36 10.3477 36 15C36 19.6377 33.3271 23.6978 31.999 25.4292C30.6699 23.7017 28 19.6523 28 15C28 10.3623 30.6729 6.30225 32.001 4.5708ZM26.0182 15.4116C26.1444 19.7839 28.2136 23.5396 29.7222 25.7075C27.3001 25.258 23.4417 24.1282 20.6113 21.2969C17.3672 18.0181 16.3945 13.2925 16.1113 11.1392C18.2087 11.4122 22.7424 12.3456 26.0182 15.4116V15.4116ZM19.5264 23.0161C22.7167 26.04 26.8549 27.2347 29.4588 27.6996C27.4221 29.0928 23.9219 31 20 31C15.3623 31 11.3037 28.3291 9.57227 27C11.2459 25.7166 15.0908 23.1885 19.5264 23.0161Z" fill="#543C52"/>
<path fill-rule="evenodd" clip-rule="evenodd" d="M44.0638 32.9972C50.9766 32.9661 56.4509 27.9461 56.6816 27.7319C56.8848 27.5425 57 27.2773 57 27C57 26.7222 56.8848 26.457 56.6816 26.2681C56.4751 26.0764 52.0298 22.0153 46.1205 21.1655C49.7187 16.3809 49.9894 10.3472 49.999 10.0654C50.0088 9.78809 49.9033 9.51904 49.707 9.32275C49.5107 9.12646 49.2314 9.01025 48.9648 9.03027C48.6819 9.0404 42.6299 9.3117 37.8412 12.9272C37.0072 6.99371 32.9254 2.52625 32.7324 2.31885C32.3535 1.91162 31.6465 1.91162 31.2676 2.31885C31.0747 2.52625 26.9928 6.99372 26.1588 12.9272C21.3701 9.31171 15.3181 9.04041 15.0351 9.03028C14.7568 9.0127 14.4883 9.12647 14.293 9.32276C14.0967 9.51905 13.9912 9.78809 14.001 10.0654C14.0106 10.3465 14.2796 16.3474 17.8878 21.1644C11.9744 22.0116 7.52502 26.0764 7.31835 26.2681C7.11523 26.457 7 26.7222 7 27C7 27.2773 7.11523 27.5425 7.31836 27.7319C7.54907 27.9461 13.023 32.9656 19.9356 32.9971C24 31.9999 25.9258 32 26.5996 32H37.4004C38.5346 32 40 31.9999 44.0638 32.9972ZM32 28.3139C31.471 28.7416 30.6533 29.3555 29.6093 30H34.3907C33.3467 29.3555 32.529 28.7416 32 28.3139ZM34.5391 27.6982C36.5754 29.0916 40.0767 31 44 31C48.6377 31 52.6963 28.3291 54.4277 27C52.7535 25.7161 48.9067 23.1868 44.4692 23.0159C41.2518 26.0363 37.1319 27.2324 34.5391 27.6982ZM34.2791 25.7056C36.7011 25.2564 40.552 24.1342 43.3428 21.3428C46.6318 18.0186 47.6074 13.2935 47.8896 11.1411C45.7896 11.4175 41.2482 12.3558 37.9818 15.4117C37.8557 19.7827 35.7877 23.5374 34.2791 25.7056ZM36 15C36 10.3477 33.3301 6.29834 32.001 4.5708C30.6729 6.30225 28 10.3623 28 15C28 19.6523 30.6699 23.7017 31.999 25.4292C33.3271 23.6978 36 19.6377 36 15ZM29.7222 25.7075C28.2136 23.5396 26.1444 19.7839 26.0182 15.4116C22.7424 12.3456 18.2087 11.4122 16.1113 11.1392C16.3945 13.2925 17.3672 18.0181 20.6113 21.2969C23.4417 24.1282 27.3001 25.258 29.7222 25.7075ZM29.4588 27.6996C26.8549 27.2347 22.7167 26.04 19.5264 23.0161C15.0908 23.1885 11.2459 25.7166 9.57227 27C11.3037 28.3291 15.3623 31 20 31C23.9219 31 27.4221 29.0928 29.4588 27.6996Z" fill="#F55951"/>
<path d="M31 33.9999H33V35.9999H31V33.9999Z" fill="#F55951"/>
<path d="M31 38.0001H33V40.0001H31V38.0001Z" fill="#F55951"/>
<path d="M31 42.0001H33V44.0001H31V42.0001Z" fill="#F55951"/>
<defs>
<linearGradient id="paint0_linear" x1="17.1501" y1="52.4583" x2="53.2354" y2="9.4535" gradientUnits="userSpaceOnUse">
<stop stop-color="#FFB3B3" stop-opacity="0"/>
<stop offset="0.2938" stop-color="#FFB3B3" stop-opacity="0.373"/>
<stop offset="0.7874" stop-color="#FFB3B3"/>
</linearGradient>
</defs>
</svg>
