<svg width="32" height="32" viewBox="0 0 32 32" fill="none" xmlns="http://www.w3.org/2000/svg">
<path d="M27.2805 0H4.71715C2.12272 0 0 2.12272 0 4.71715V27.2828C0 29.8773 2.12272 32 4.71715 32H27.2828C29.8773 32 32 29.8773 32 27.2828V4.71715C31.9976 2.12272 29.8773 0 27.2805 0V0ZM26.9774 17.0796H23.1801V30.8184H17.4983V17.0796H14.6562V12.3436H17.4983V9.50153C17.4983 5.63818 19.1021 3.33975 23.666 3.33975H27.4597V8.07459H25.087C23.3134 8.07459 23.1954 8.73853 23.1954 9.97325L23.1801 12.3436H27.4786L26.9762 17.0796H26.9774Z" fill="#395185"/>
</svg>
