<svg width="32" height="32" viewBox="0 0 32 32" fill="none" xmlns="http://www.w3.org/2000/svg">
<path d="M27.9826 32H4.01258C2.9098 32 1.96826 31.6094 1.18799 30.8281C0.407715 30.0469 0.0175781 29.1042 0.0175781 28V4C0.0175781 2.89583 0.407715 1.95312 1.18799 1.17188C1.96826 0.390625 2.9098 0 4.01258 0H27.9826C29.0854 0 30.0269 0.390625 30.8072 1.17188C31.5875 1.95312 31.9776 2.89583 31.9776 4V28C31.9776 29.1042 31.5875 30.0469 30.8072 30.8281C30.0269 31.6094 29.0854 32 27.9826 32V32ZM25.3921 8C25.2673 8.0625 25.08 8.18229 24.8303 8.35938C24.5806 8.53646 24.3778 8.67188 24.2217 8.76562C24.0656 8.85938 23.8732 8.95833 23.6443 9.0625C23.4154 9.16667 23.1969 9.23958 22.9889 9.28125C22.219 8.42708 21.2723 8 20.1487 8C17.7142 8 16.497 9.02083 16.497 11.0625V12.9375C13.147 12.75 10.5773 11.5104 8.78787 9.21875C8.26768 9.76042 8.00759 10.3542 8.00759 11C8.00759 12.375 8.51737 13.4167 9.53693 14.125C9.39128 14.125 9.20921 14.1354 8.99074 14.1562C8.77226 14.1771 8.5954 14.1771 8.46015 14.1562C8.3249 14.1354 8.17405 14.0833 8.00759 14C8.00759 14.9583 8.26248 15.7552 8.77226 16.3906C9.28204 17.026 9.98429 17.4375 10.879 17.625C10.6709 17.875 10.3796 18 10.0051 18C9.67218 18 9.38087 17.9062 9.13119 17.7188C9.13119 18.5312 9.52132 19.1615 10.3016 19.6094C11.0819 20.0573 11.961 20.2917 12.9389 20.3125C12.5644 20.875 12.0182 21.2969 11.3003 21.5781C10.5825 21.8594 9.81783 22 9.00634 22C8.71504 22 8.3145 21.9271 7.80472 21.7812C7.29494 21.6354 7.02965 21.5625 7.00884 21.5625C7.34176 22.2292 8.0232 22.8021 9.05316 23.2812C10.0831 23.7604 11.3888 24 12.9701 24C14.3642 24 15.6647 23.7552 16.8715 23.2656C18.0783 22.776 19.1083 22.125 19.9614 21.3125C20.8145 20.5 21.548 19.5729 22.1618 18.5312C22.7756 17.4896 23.2334 16.4115 23.5351 15.2969C23.8368 14.1823 23.9876 13.0833 23.9876 12C23.9876 11.9583 24.1125 11.8698 24.3621 11.7344C24.6118 11.599 24.9031 11.4219 25.2361 11.2031C25.569 10.9844 25.8187 10.7396 25.9851 10.4688C24.8615 10.4688 24.1125 10.4896 23.7379 10.5312C24.4662 10.0938 25.0176 9.25 25.3921 8Z" fill="#1DA1F2"/>
</svg>
