<svg width="32" height="32" viewBox="0 0 32 32" fill="none" xmlns="http://www.w3.org/2000/svg">
<path d="M26.8889 27.037V18.074C26.8889 16.5432 26.3457 15.2345 25.2593 14.1481C24.1728 13.0617 22.8642 12.5185 21.3333 12.5185C20.5926 12.5185 19.8519 12.7283 19.1111 13.1481C18.3704 13.5678 17.8025 14.0987 17.4074 14.7407V12.8148H12.6667V27.037H17.4074V18.6666C17.4074 18.0246 17.6296 17.4691 18.0741 16.9999C18.5185 16.5308 19.0741 16.2962 19.7407 16.2962C20.4074 16.2962 20.9753 16.5308 21.4444 16.9999C21.9136 17.4691 22.1481 18.0246 22.1481 18.6666V27.037H26.8889ZM7.11111 10.1481C7.90123 10.1481 8.58025 9.87649 9.14815 9.33328C9.71605 8.79007 10 8.1234 10 7.33328C10 6.54316 9.71605 5.86414 9.14815 5.29624C8.58025 4.72834 7.90123 4.44439 7.11111 4.44439C6.32099 4.44439 5.64198 4.72834 5.07407 5.29624C4.50617 5.86414 4.22222 6.54316 4.22222 7.33328C4.22222 8.1234 4.50617 8.79007 5.07407 9.33328C5.64198 9.87649 6.32099 10.1481 7.11111 10.1481ZM9.48148 27.037V12.8148H4.74074V27.037H9.48148ZM28.4444 0.222168C29.3333 0.222168 30.0864 0.53081 30.7037 1.14809C31.321 1.76538 31.6296 2.49377 31.6296 3.33328V28.6666C31.6296 29.5061 31.321 30.2345 30.7037 30.8518C30.0864 31.4691 29.3333 31.7777 28.4444 31.7777H3.18519C2.2963 31.7777 1.54321 31.4691 0.925926 30.8518C0.308642 30.2345 0 29.5061 0 28.6666V3.33328C0 2.49377 0.308642 1.76538 0.925926 1.14809C1.54321 0.53081 2.2963 0.222168 3.18519 0.222168H28.4444Z" fill="#006087"/>
</svg>
