<svg width="56" height="56" viewBox="0 0 56 56" fill="none" xmlns="http://www.w3.org/2000/svg">
<path d="M38.1382 41.4117H2.54987C1.67505 41.4117 0.96582 40.7025 0.96582 39.8276V3.70979C0.96582 2.1966 2.19684 0.965576 3.71003 0.965576H38.6677C40.1809 0.965576 41.4119 2.1966 41.4119 3.70979V21.7687" stroke="#FEEEEE" stroke-width="1.5"/>
<path d="M37.084 5.70547C37.3089 5.70547 37.4941 5.52012 37.4941 5.29541C37.4941 5.07062 37.3088 4.88525 37.084 4.88525C36.8592 4.88525 36.6739 5.07055 36.6738 5.29529L37.084 5.70547ZM37.084 5.70547C36.8594 5.70547 36.6739 5.52017 36.6738 5.29541L37.084 5.70547Z" stroke="#F55951" stroke-width="1.5"/>
<path d="M32.8535 5.29541C32.8535 5.52012 32.6682 5.70547 32.4434 5.70547C32.2185 5.70547 32.0332 5.52006 32.0332 5.29541C32.0332 5.07062 32.2186 4.88525 32.4434 4.88525C32.6682 4.88525 32.8535 5.07062 32.8535 5.29541Z" stroke="#FEEEEE" stroke-width="1.5"/>
<path d="M27.8027 5.70547C28.0276 5.70547 28.2129 5.52011 28.2129 5.29541C28.2129 5.07062 28.0275 4.88525 27.8027 4.88525C27.578 4.88525 27.3926 5.07056 27.3926 5.29529L27.8027 5.70547ZM27.8027 5.70547C27.5781 5.70547 27.3927 5.5202 27.3926 5.29541L27.8027 5.70547Z" stroke="#FEEEEE" stroke-width="1.5"/>
<path d="M54.0693 27.5173C54.2447 28.1283 54.0299 28.3322 53.6434 28.7547C51.4377 31.1665 44.9808 38.9594 44.9808 38.9594V49.739C44.9808 50.2625 44.7754 50.7509 44.4342 51.0382L39.9928 54.7794C39.7916 54.949 39.5599 55.0345 39.3277 55.0345C39.1302 55.0345 38.9323 54.9727 38.7523 54.8481C38.3604 54.5768 38.1161 54.0516 38.1161 53.4803V38.962C38.1161 38.962 32.0322 31.5785 29.4528 28.7539C29.0669 28.3313 28.8522 28.1277 29.0279 27.5168" stroke="#FEEEEE" stroke-width="1.5"/>
<path d="M53.7264 28.2156H29.3081C29.0126 28.2156 28.75 27.9679 28.75 27.6336V22.5734C28.75 22.2392 29.0126 21.9915 29.3081 21.9915H53.7264C54.0219 21.9915 54.2845 22.2392 54.2845 22.5734V27.6336C54.2845 27.9679 54.0219 28.2156 53.7264 28.2156Z" stroke="#FEEEEE" stroke-width="1.5"/>
<line x1="0.96582" y1="8.90515" x2="41.5175" y2="8.90515" stroke="#FEEEEE" stroke-width="1.5"/>
<mask id="path-8-inside-1" fill="white">
<rect x="4.82715" y="14.4828" width="9.65517" height="8.68966" rx="1"/>
</mask>
<rect x="4.82715" y="14.4828" width="9.65517" height="8.68966" rx="1" stroke="#F55951" stroke-width="3" mask="url(#path-8-inside-1)"/>
<line x1="16.4131" y1="15.6638" x2="33.7924" y2="15.6638" stroke="#F55951" stroke-width="1.5"/>
<line x1="16.4131" y1="19.5259" x2="27.0338" y2="19.5259" stroke="#FEEEEE" stroke-width="1.5"/>
<mask id="path-11-inside-2" fill="white">
<rect x="4.82715" y="27.0344" width="9.65517" height="8.68966" rx="1"/>
</mask>
<rect x="4.82715" y="27.0344" width="9.65517" height="8.68966" rx="1" stroke="#F55951" stroke-width="3" mask="url(#path-11-inside-2)"/>
<line x1="16.4131" y1="28.2155" x2="24.1372" y2="28.2155" stroke="#F55951" stroke-width="1.5"/>
<line x1="16.4131" y1="32.0775" x2="27.9993" y2="32.0775" stroke="#FEEEEE" stroke-width="1.5"/>
</svg>
