<svg width="16" height="18" viewBox="0 0 16 18" fill="none" xmlns="http://www.w3.org/2000/svg">
<path d="M14.6914 4.64648C14.3237 3.79859 13.7935 3.0309 13.1309 2.38672C12.466 1.73672 11.6822 1.22082 10.8223 0.867188C9.92773 0.496094 8.97852 0.308594 8 0.308594C7.02148 0.308594 6.07227 0.496094 5.17773 0.865234C4.3125 1.22266 3.53711 1.73438 2.86914 2.38477C2.20688 3.02931 1.67679 3.79691 1.30859 4.64453C0.927734 5.52344 0.734375 6.45703 0.734375 7.41797C0.734375 8.79688 1.06445 10.1699 1.71289 11.4941C2.23438 12.5586 2.96289 13.5957 3.88086 14.582C5.44922 16.2656 7.09375 17.2949 7.56055 17.5703C7.69305 17.6486 7.84416 17.6897 7.99805 17.6895C8.15039 17.6895 8.30078 17.6504 8.43555 17.5703C8.90234 17.2949 10.5469 16.2656 12.1152 14.582C13.0332 13.5977 13.7617 12.5586 14.2832 11.4941C14.9355 10.1719 15.2656 8.80078 15.2656 7.41992C15.2656 6.45898 15.0723 5.52539 14.6914 4.64648ZM8 16.1914C6.71289 15.373 2.14062 12.1328 2.14062 7.41992C2.14062 5.89844 2.74805 4.46875 3.85156 3.39062C4.95898 2.31055 6.43164 1.71484 8 1.71484C9.56836 1.71484 11.041 2.31055 12.1484 3.39258C13.252 4.46875 13.8594 5.89844 13.8594 7.41992C13.8594 12.1328 9.28711 15.373 8 16.1914Z" fill="#361D32"/>
</svg>
