<svg width="24" height="24" viewBox="0 0 24 24" fill="none" xmlns="http://www.w3.org/2000/svg">
<path d="M11.1918 12.5696L3.18555 6.34458L2.54102 5.84302L3.18789 6.34692V18.5625H20.8129V6.34692L12.802 12.5696C12.5717 12.7485 12.2884 12.8456 11.9969 12.8456C11.7053 12.8456 11.422 12.7485 11.1918 12.5696Z" fill="#361D32" fill-opacity="0.15"/>
<path d="M20.5381 4.65942L21.4592 5.84302L20.8123 6.34692L21.4615 5.84302L20.5404 4.65942H20.5381Z" fill="#361D32" fill-opacity="0.15"/>
<path d="M21.75 3.75H2.25C1.83516 3.75 1.5 4.08516 1.5 4.5V19.5C1.5 19.9148 1.83516 20.25 2.25 20.25H21.75C22.1648 20.25 22.5 19.9148 22.5 19.5V4.5C22.5 4.08516 22.1648 3.75 21.75 3.75ZM19.5352 5.43984L12 11.2969L4.46484 5.43984H19.5352ZM20.8125 6.34687V18.5625H3.1875V6.34687L2.54063 5.84297L3.18516 6.34453L11.1914 12.5695C11.4217 12.7484 11.7049 12.8455 11.9965 12.8455C12.2881 12.8455 12.5713 12.7484 12.8016 12.5695L20.8125 6.34687L21.4594 5.84297L20.5383 4.65938H20.5406L21.4617 5.84297L20.8125 6.34687Z" fill="#361D32"/>
</svg>
