<svg width="16" height="16" viewBox="0 0 16 16" fill="none" xmlns="http://www.w3.org/2000/svg">
<path d="M0.869141 2.66211L2.94922 0.583984C3.20312 0.330078 3.54297 0.1875 3.90234 0.1875C4.26172 0.1875 4.60156 0.328125 4.85547 0.583984L7.0957 2.82031C7.34961 3.07422 7.49219 3.41602 7.49219 3.77539C7.49219 4.13672 7.35156 4.47461 7.0957 4.73047L5.3457 6.48242C5.74437 7.4113 6.31718 8.25527 7.0332 8.96875C7.75 9.68945 8.58789 10.2578 9.51758 10.6602L11.2676 8.9082C11.5215 8.6543 11.8613 8.51172 12.2207 8.51172C12.398 8.51106 12.5736 8.54579 12.7372 8.61387C12.9009 8.68196 13.0493 8.78202 13.1738 8.9082L15.416 11.1445C15.6699 11.3984 15.8125 11.7402 15.8125 12.0996C15.8125 12.4609 15.6719 12.7988 15.416 13.0547L13.3379 15.1328C12.9043 15.5664 12.3066 15.8145 11.6934 15.8145C11.5664 15.8145 11.4434 15.8047 11.3184 15.7832C8.73242 15.3574 6.16602 13.9805 4.09375 11.9102C2.02344 9.83594 0.648438 7.26953 0.21875 4.68164C0.0957022 3.94727 0.341797 3.19141 0.869141 2.66211ZM1.60352 4.44922C1.98438 6.75195 3.22266 9.04883 5.08789 10.9141C6.95312 12.7793 9.24805 14.0176 11.5508 14.3984C11.8398 14.4473 12.1367 14.3496 12.3477 14.1406L14.3887 12.0996L12.2246 9.93359L9.88477 12.2773L9.86719 12.2949L9.44531 12.1387C8.16616 11.6684 7.00456 10.9255 6.04103 9.96168C5.07751 8.99781 4.33509 7.83596 3.86523 6.55664L3.70898 6.13477L6.06836 3.77734L3.9043 1.61133L1.86328 3.65234C1.65234 3.86328 1.55469 4.16016 1.60352 4.44922Z" fill="#361D32"/>
</svg>
