<svg width="20" height="20" viewBox="0 0 20 20" fill="none" xmlns="http://www.w3.org/2000/svg">
<mask id="path-1-inside-1" fill="white">
<rect width="6" height="6" rx="0.5"/>
</mask>
<rect width="6" height="6" rx="0.5" stroke="#F55951" stroke-width="3" mask="url(#path-1-inside-1)"/>
<mask id="path-2-inside-2" fill="white">
<rect y="7" width="6" height="6" rx="0.5"/>
</mask>
<rect y="7" width="6" height="6" rx="0.5" stroke="#F55951" stroke-width="3" mask="url(#path-2-inside-2)"/>
<mask id="path-3-inside-3" fill="white">
<rect y="14" width="6" height="6" rx="0.5"/>
</mask>
<rect y="14" width="6" height="6" rx="0.5" stroke="#F55951" stroke-width="3" mask="url(#path-3-inside-3)"/>
<mask id="path-4-inside-4" fill="white">
<rect x="7" width="6" height="6" rx="0.5"/>
</mask>
<rect x="7" width="6" height="6" rx="0.5" stroke="#F55951" stroke-width="3" mask="url(#path-4-inside-4)"/>
<mask id="path-5-inside-5" fill="white">
<rect x="7" y="7" width="6" height="6" rx="0.5"/>
</mask>
<rect x="7" y="7" width="6" height="6" rx="0.5" stroke="#F55951" stroke-width="3" mask="url(#path-5-inside-5)"/>
<mask id="path-6-inside-6" fill="white">
<rect x="7" y="14" width="6" height="6" rx="0.5"/>
</mask>
<rect x="7" y="14" width="6" height="6" rx="0.5" stroke="#F55951" stroke-width="3" mask="url(#path-6-inside-6)"/>
<mask id="path-7-inside-7" fill="white">
<rect x="14" width="6" height="6" rx="0.5"/>
</mask>
<rect x="14" width="6" height="6" rx="0.5" stroke="#F55951" stroke-width="3" mask="url(#path-7-inside-7)"/>
<mask id="path-8-inside-8" fill="white">
<rect x="14" y="7" width="6" height="6" rx="0.5"/>
</mask>
<rect x="14" y="7" width="6" height="6" rx="0.5" stroke="#F55951" stroke-width="3" mask="url(#path-8-inside-8)"/>
<mask id="path-9-inside-9" fill="white">
<rect x="14" y="14" width="6" height="6" rx="0.5"/>
</mask>
<rect x="14" y="14" width="6" height="6" rx="0.5" stroke="#F55951" stroke-width="3" mask="url(#path-9-inside-9)"/>
</svg>
