<svg width="24" height="24" viewBox="0 0 24 24" fill="none" xmlns="http://www.w3.org/2000/svg">
<g opacity="0.15">
<rect x="2" y="2" width="6" height="6" rx="0.5" fill="white"/>
<rect x="2" y="9" width="6" height="6" rx="0.5" fill="white"/>
<rect x="2" y="16" width="6" height="6" rx="0.5" fill="white"/>
<rect x="9" y="2" width="6" height="6" rx="0.5" fill="white"/>
<rect x="9" y="9" width="6" height="6" rx="0.5" fill="white"/>
<rect x="9" y="16" width="6" height="6" rx="0.5" fill="white"/>
<rect x="16" y="2" width="6" height="6" rx="0.5" fill="white"/>
<rect x="16" y="9" width="6" height="6" rx="0.5" fill="white"/>
<rect x="16" y="16" width="6" height="6" rx="0.5" fill="white"/>
</g>
<mask id="path-10-inside-1" fill="white">
<rect x="2" y="2" width="6" height="6" rx="0.5"/>
</mask>
<rect x="2" y="2" width="6" height="6" rx="0.5" stroke="white" stroke-width="3" mask="url(#path-10-inside-1)"/>
<mask id="path-11-inside-2" fill="white">
<rect x="2" y="9" width="6" height="6" rx="0.5"/>
</mask>
<rect x="2" y="9" width="6" height="6" rx="0.5" stroke="white" stroke-width="3" mask="url(#path-11-inside-2)"/>
<mask id="path-12-inside-3" fill="white">
<rect x="2" y="16" width="6" height="6" rx="0.5"/>
</mask>
<rect x="2" y="16" width="6" height="6" rx="0.5" stroke="white" stroke-width="3" mask="url(#path-12-inside-3)"/>
<mask id="path-13-inside-4" fill="white">
<rect x="9" y="2" width="6" height="6" rx="0.5"/>
</mask>
<rect x="9" y="2" width="6" height="6" rx="0.5" stroke="white" stroke-width="3" mask="url(#path-13-inside-4)"/>
<mask id="path-14-inside-5" fill="white">
<rect x="9" y="9" width="6" height="6" rx="0.5"/>
</mask>
<rect x="9" y="9" width="6" height="6" rx="0.5" stroke="white" stroke-width="3" mask="url(#path-14-inside-5)"/>
<mask id="path-15-inside-6" fill="white">
<rect x="9" y="16" width="6" height="6" rx="0.5"/>
</mask>
<rect x="9" y="16" width="6" height="6" rx="0.5" stroke="white" stroke-width="3" mask="url(#path-15-inside-6)"/>
<mask id="path-16-inside-7" fill="white">
<rect x="16" y="2" width="6" height="6" rx="0.5"/>
</mask>
<rect x="16" y="2" width="6" height="6" rx="0.5" stroke="white" stroke-width="3" mask="url(#path-16-inside-7)"/>
<mask id="path-17-inside-8" fill="white">
<rect x="16" y="9" width="6" height="6" rx="0.5"/>
</mask>
<rect x="16" y="9" width="6" height="6" rx="0.5" stroke="white" stroke-width="3" mask="url(#path-17-inside-8)"/>
<mask id="path-18-inside-9" fill="white">
<rect x="16" y="16" width="6" height="6" rx="0.5"/>
</mask>
<rect x="16" y="16" width="6" height="6" rx="0.5" stroke="white" stroke-width="3" mask="url(#path-18-inside-9)"/>
</svg>
