<svg width="124" height="32" viewBox="0 0 124 32" fill="none" xmlns="http://www.w3.org/2000/svg">
<path d="M43.088 22V10.176H45.28V19.904H48.896V22H43.088ZM55.7029 9.968C57.4309 9.968 58.8869 10.56 60.0709 11.744C61.2655 12.9173 61.8629 14.3627 61.8629 16.08C61.8629 17.7973 61.2762 19.248 60.1029 20.432C58.9295 21.616 57.4842 22.208 55.7669 22.208C54.0175 22.208 52.5402 21.616 51.3349 20.432C50.1295 19.248 49.5269 17.7973 49.5269 16.08C49.5269 14.3733 50.1242 12.928 51.3189 11.744C52.5135 10.56 53.9749 9.968 55.7029 9.968ZM55.7029 12.08C54.5829 12.08 53.6389 12.4693 52.8709 13.248C52.1135 14.016 51.7349 14.96 51.7349 16.08C51.7349 17.2107 52.1189 18.1653 52.8869 18.944C53.6655 19.712 54.6202 20.096 55.7509 20.096C56.8709 20.096 57.7989 19.7173 58.5349 18.96C59.2815 18.192 59.6549 17.2373 59.6549 16.096C59.6549 14.9547 59.2762 14 58.5189 13.232C57.7615 12.464 56.8229 12.08 55.7029 12.08ZM67.8444 18.016V15.968H75.5724V16.144V16.208C75.5724 17.8933 74.975 19.3173 73.7804 20.48C72.5964 21.632 71.135 22.208 69.3964 22.208C67.5724 22.208 66.0417 21.6213 64.8044 20.448C63.5777 19.264 62.9644 17.8027 62.9644 16.064C62.9644 14.368 63.567 12.928 64.7724 11.744C65.9777 10.56 67.4497 9.968 69.1884 9.968C70.4897 9.968 71.679 10.3093 72.7564 10.992C73.8444 11.6747 74.5857 12.56 74.9804 13.648H72.3884C71.6417 12.6027 70.559 12.08 69.1404 12.08C67.999 12.08 67.0497 12.464 66.2924 13.232C65.5457 13.9893 65.1724 14.944 65.1724 16.096C65.1724 17.2373 65.5617 18.192 66.3404 18.96C67.1297 19.7173 68.1057 20.096 69.2684 20.096C70.047 20.096 70.7404 19.9147 71.3484 19.552C71.9564 19.1893 72.4204 18.6773 72.7404 18.016H67.8444ZM82.5779 9.968C84.3059 9.968 85.7619 10.56 86.9459 11.744C88.1405 12.9173 88.7379 14.3627 88.7379 16.08C88.7379 17.7973 88.1512 19.248 86.9779 20.432C85.8045 21.616 84.3592 22.208 82.6419 22.208C80.8925 22.208 79.4152 21.616 78.2099 20.432C77.0045 19.248 76.4019 17.7973 76.4019 16.08C76.4019 14.3733 76.9992 12.928 78.1939 11.744C79.3885 10.56 80.8499 9.968 82.5779 9.968ZM82.5779 12.08C81.4579 12.08 80.5139 12.4693 79.7459 13.248C78.9885 14.016 78.6099 14.96 78.6099 16.08C78.6099 17.2107 78.9939 18.1653 79.7619 18.944C80.5405 19.712 81.4952 20.096 82.6259 20.096C83.7459 20.096 84.6739 19.7173 85.4099 18.96C86.1565 18.192 86.5299 17.2373 86.5299 16.096C86.5299 14.9547 86.1512 14 85.3939 13.232C84.6365 12.464 83.6979 12.08 82.5779 12.08ZM91.6474 22V12.272H89.4714V10.176H96.0474V12.272H93.8394V22H91.6474ZM100.014 22V17.632L96.1261 10.176H98.4941L101.118 15.616L103.726 10.176H106.094L102.206 17.632V22H100.014ZM107.088 22V10.176H110.016C111.627 10.176 112.8 10.464 113.536 11.04C114.272 11.616 114.64 12.544 114.64 13.824C114.64 15.1253 114.277 16.064 113.552 16.64C112.827 17.216 111.637 17.504 109.984 17.504H109.28V22H107.088ZM109.28 15.408H109.92C110.827 15.408 111.472 15.2907 111.856 15.056C112.24 14.8213 112.432 14.4213 112.432 13.856C112.432 13.2693 112.256 12.8587 111.904 12.624C111.552 12.3893 110.923 12.272 110.016 12.272H109.28V15.408ZM116.041 22V10.176H122.393V12.272H118.233V15.056H122.217V17.152H118.233V19.904H122.393V22H116.041Z" fill="#F7827C"/>
<path d="M13.8125 5V13.8125H5.5C5.26252 13.8125 4.90074 13.8725 4.60539 14.1679C4.31005 14.4632 4.25 14.825 4.25 15.0625V16.9375C4.25 17.175 4.31005 17.5368 4.60539 17.8321C4.90074 18.1275 5.26252 18.1875 5.5 18.1875H13.8125V27C13.8125 27.2375 13.8725 27.5993 14.1679 27.8946C14.4632 28.19 14.825 28.25 15.0625 28.25H16.9375C17.175 28.25 17.5368 28.19 17.8321 27.8946C18.1275 27.5993 18.1875 27.2375 18.1875 27V18.1875H26.5C26.7375 18.1875 27.0993 18.1275 27.3946 17.8321C27.69 17.5368 27.75 17.175 27.75 16.9375V15.0625C27.75 14.825 27.69 14.4632 27.3946 14.1679C27.0993 13.8725 26.7375 13.8125 26.5 13.8125H18.1875V5C18.1875 4.76252 18.1275 4.40074 17.8321 4.10539C17.5368 3.81005 17.175 3.75 16.9375 3.75H15.0625C14.825 3.75 14.4632 3.81005 14.1679 4.10539C13.8725 4.40074 13.8125 4.76252 13.8125 5Z" stroke="#FAACA8" stroke-width="2"/>
</svg>
