<svg width="124" height="32" viewBox="0 0 124 32" fill="none" xmlns="http://www.w3.org/2000/svg">
<path d="M43.0879 22V10.176H45.2799V19.904H48.8959V22H43.0879Z" fill="white"/>
<path d="M55.7028 9.968C57.4308 9.968 58.8868 10.56 60.0708 11.744C61.2654 12.9173 61.8628 14.3627 61.8628 16.08C61.8628 17.7973 61.2761 19.248 60.1028 20.432C58.9294 21.616 57.4841 22.208 55.7668 22.208C54.0174 22.208 52.5401 21.616 51.3348 20.432C50.1294 19.248 49.5268 17.7973 49.5268 16.08C49.5268 14.3733 50.1241 12.928 51.3188 11.744C52.5134 10.56 53.9748 9.968 55.7028 9.968ZM55.7028 12.08C54.5828 12.08 53.6388 12.4693 52.8708 13.248C52.1134 14.016 51.7348 14.96 51.7348 16.08C51.7348 17.2107 52.1188 18.1653 52.8868 18.944C53.6654 19.712 54.6201 20.096 55.7508 20.096C56.8708 20.096 57.7988 19.7173 58.5348 18.96C59.2814 18.192 59.6548 17.2373 59.6548 16.096C59.6548 14.9547 59.2761 14 58.5188 13.232C57.7614 12.464 56.8228 12.08 55.7028 12.08Z" fill="white"/>
<path d="M67.8443 18.016V15.968H75.5723V16.208C75.5723 17.8933 74.9749 19.3173 73.7803 20.48C72.5963 21.632 71.1349 22.208 69.3963 22.208C67.5723 22.208 66.0416 21.6213 64.8043 20.448C63.5776 19.264 62.9643 17.8027 62.9643 16.064C62.9643 14.368 63.5669 12.928 64.7723 11.744C65.9776 10.56 67.4496 9.968 69.1883 9.968C70.4896 9.968 71.6789 10.3093 72.7563 10.992C73.8443 11.6747 74.5856 12.56 74.9803 13.648H72.3883C71.6416 12.6027 70.5589 12.08 69.1403 12.08C67.9989 12.08 67.0496 12.464 66.2923 13.232C65.5456 13.9893 65.1723 14.944 65.1723 16.096C65.1723 17.2373 65.5616 18.192 66.3403 18.96C67.1296 19.7173 68.1056 20.096 69.2683 20.096C70.0469 20.096 70.7403 19.9147 71.3483 19.552C71.9563 19.1893 72.4203 18.6773 72.7403 18.016H67.8443Z" fill="white"/>
<path d="M82.5778 9.968C84.3058 9.968 85.7618 10.56 86.9458 11.744C88.1404 12.9173 88.7378 14.3627 88.7378 16.08C88.7378 17.7973 88.1511 19.248 86.9778 20.432C85.8044 21.616 84.3591 22.208 82.6418 22.208C80.8924 22.208 79.4151 21.616 78.2098 20.432C77.0044 19.248 76.4018 17.7973 76.4018 16.08C76.4018 14.3733 76.9991 12.928 78.1938 11.744C79.3884 10.56 80.8498 9.968 82.5778 9.968ZM82.5778 12.08C81.4578 12.08 80.5138 12.4693 79.7458 13.248C78.9884 14.016 78.6098 14.96 78.6098 16.08C78.6098 17.2107 78.9938 18.1653 79.7618 18.944C80.5404 19.712 81.4951 20.096 82.6258 20.096C83.7458 20.096 84.6738 19.7173 85.4098 18.96C86.1564 18.192 86.5298 17.2373 86.5298 16.096C86.5298 14.9547 86.1511 14 85.3938 13.232C84.6364 12.464 83.6978 12.08 82.5778 12.08Z" fill="white"/>
<path d="M91.6473 22V12.272H89.4713V10.176H96.0473V12.272H93.8393V22H91.6473Z" fill="white"/>
<path d="M100.014 22V17.632L96.126 10.176H98.494L101.118 15.616L103.726 10.176H106.094L102.206 17.632V22H100.014Z" fill="white"/>
<path d="M107.088 22V10.176H110.016C111.627 10.176 112.8 10.464 113.536 11.04C114.272 11.616 114.64 12.544 114.64 13.824C114.64 15.1253 114.277 16.064 113.552 16.64C112.827 17.216 111.637 17.504 109.984 17.504H109.28V22H107.088ZM109.28 15.408H109.92C110.827 15.408 111.472 15.2907 111.856 15.056C112.24 14.8213 112.432 14.4213 112.432 13.856C112.432 13.2693 112.256 12.8587 111.904 12.624C111.552 12.3893 110.923 12.272 110.016 12.272H109.28V15.408Z" fill="white"/>
<path d="M116.041 22V10.176H122.393V12.272H118.233V15.056H122.217V17.152H118.233V19.904H122.393V22H116.041Z" fill="white"/>
<path d="M13.8125 5V13.8125H5.5C5.26252 13.8125 4.90074 13.8725 4.60539 14.1679C4.31005 14.4632 4.25 14.825 4.25 15.0625V16.9375C4.25 17.175 4.31005 17.5368 4.60539 17.8321C4.90074 18.1275 5.26252 18.1875 5.5 18.1875H13.8125V27C13.8125 27.2375 13.8725 27.5993 14.1679 27.8946C14.4632 28.19 14.825 28.25 15.0625 28.25H16.9375C17.175 28.25 17.5368 28.19 17.8321 27.8946C18.1275 27.5993 18.1875 27.2375 18.1875 27V18.1875H26.5C26.7375 18.1875 27.0993 18.1275 27.3946 17.8321C27.69 17.5368 27.75 17.175 27.75 16.9375V15.0625C27.75 14.825 27.69 14.4632 27.3946 14.1679C27.0993 13.8725 26.7375 13.8125 26.5 13.8125H18.1875V5C18.1875 4.76252 18.1275 4.40074 17.8321 4.10539C17.5368 3.81005 17.175 3.75 16.9375 3.75H15.0625C14.825 3.75 14.4632 3.81005 14.1679 4.10539C13.8725 4.40074 13.8125 4.76252 13.8125 5Z" stroke="white" stroke-width="2"/>
</svg>
