<svg width="56" height="56" viewBox="0 0 56 56" fill="none" xmlns="http://www.w3.org/2000/svg">
<path d="M26.25 24.5H29.75C29.9821 24.5 30.2046 24.4078 30.3687 24.2437C30.5328 24.0796 30.625 23.8571 30.625 23.625V20.125C30.625 19.8929 30.5328 19.6704 30.3687 19.5063C30.2046 19.3422 29.9821 19.25 29.75 19.25H26.25C26.0179 19.25 25.7954 19.3422 25.6313 19.5063C25.4672 19.6704 25.375 19.8929 25.375 20.125V23.625C25.375 23.8571 25.4672 24.0796 25.6313 24.2437C25.7954 24.4078 26.0179 24.5 26.25 24.5ZM27.125 21H28.875V22.75H27.125V21Z" fill="#FEEEEE"/>
<path d="M43.75 24.5H47.25C47.4821 24.5 47.7046 24.4078 47.8687 24.2437C48.0328 24.0796 48.125 23.8571 48.125 23.625V20.125C48.125 19.8929 48.0328 19.6704 47.8687 19.5063C47.7046 19.3422 47.4821 19.25 47.25 19.25H43.75C43.5179 19.25 43.2954 19.3422 43.1313 19.5063C42.9672 19.6704 42.875 19.8929 42.875 20.125V23.625C42.875 23.8571 42.9672 24.0796 43.1313 24.2437C43.2954 24.4078 43.5179 24.5 43.75 24.5ZM44.625 21H46.375V22.75H44.625V21Z" fill="#FEEEEE"/>
<path d="M35 24.5H38.5C38.7321 24.5 38.9546 24.4078 39.1187 24.2437C39.2828 24.0796 39.375 23.8571 39.375 23.625V20.125C39.375 19.8929 39.2828 19.6704 39.1187 19.5063C38.9546 19.3422 38.7321 19.25 38.5 19.25H35C34.7679 19.25 34.5454 19.3422 34.3813 19.5063C34.2172 19.6704 34.125 19.8929 34.125 20.125V23.625C34.125 23.8571 34.2172 24.0796 34.3813 24.2437C34.5454 24.4078 34.7679 24.5 35 24.5ZM35.875 21H37.625V22.75H35.875V21Z" fill="#F55951"/>
<path d="M17.5 32.375H21C21.2321 32.375 21.4546 32.2828 21.6187 32.1187C21.7828 31.9546 21.875 31.7321 21.875 31.5V28C21.875 27.7679 21.7828 27.5454 21.6187 27.3813C21.4546 27.2172 21.2321 27.125 21 27.125H17.5C17.2679 27.125 17.0454 27.2172 16.8813 27.3813C16.7172 27.5454 16.625 27.7679 16.625 28V31.5C16.625 31.7321 16.7172 31.9546 16.8813 32.1187C17.0454 32.2828 17.2679 32.375 17.5 32.375ZM18.375 28.875H20.125V30.625H18.375V28.875Z" fill="#FEEEEE"/>
<path d="M8.75 32.375H12.25C12.4821 32.375 12.7046 32.2828 12.8687 32.1187C13.0328 31.9546 13.125 31.7321 13.125 31.5V28C13.125 27.7679 13.0328 27.5454 12.8687 27.3813C12.7046 27.2172 12.4821 27.125 12.25 27.125H8.75C8.51794 27.125 8.29538 27.2172 8.13128 27.3813C7.96719 27.5454 7.875 27.7679 7.875 28V31.5C7.875 31.7321 7.96719 31.9546 8.13128 32.1187C8.29538 32.2828 8.51794 32.375 8.75 32.375ZM9.625 28.875H11.375V30.625H9.625V28.875Z" fill="#FEEEEE"/>
<path d="M26.25 32.375H29.75C29.9821 32.375 30.2046 32.2828 30.3687 32.1187C30.5328 31.9546 30.625 31.7321 30.625 31.5V28C30.625 27.7679 30.5328 27.5454 30.3687 27.3813C30.2046 27.2172 29.9821 27.125 29.75 27.125H26.25C26.0179 27.125 25.7954 27.2172 25.6313 27.3813C25.4672 27.5454 25.375 27.7679 25.375 28V31.5C25.375 31.7321 25.4672 31.9546 25.6313 32.1187C25.7954 32.2828 26.0179 32.375 26.25 32.375ZM27.125 28.875H28.875V30.625H27.125V28.875Z" fill="#FEEEEE"/>
<path d="M43.75 32.375H47.25C47.4821 32.375 47.7046 32.2828 47.8687 32.1187C48.0328 31.9546 48.125 31.7321 48.125 31.5V28C48.125 27.7679 48.0328 27.5454 47.8687 27.3813C47.7046 27.2172 47.4821 27.125 47.25 27.125H43.75C43.5179 27.125 43.2954 27.2172 43.1313 27.3813C42.9672 27.5454 42.875 27.7679 42.875 28V31.5C42.875 31.7321 42.9672 31.9546 43.1313 32.1187C43.2954 32.2828 43.5179 32.375 43.75 32.375ZM44.625 28.875H46.375V30.625H44.625V28.875Z" fill="#FEEEEE"/>
<path d="M35 32.375H38.5C38.7321 32.375 38.9546 32.2828 39.1187 32.1187C39.2828 31.9546 39.375 31.7321 39.375 31.5V28C39.375 27.7679 39.2828 27.5454 39.1187 27.3813C38.9546 27.2172 38.7321 27.125 38.5 27.125H35C34.7679 27.125 34.5454 27.2172 34.3813 27.3813C34.2172 27.5454 34.125 27.7679 34.125 28V31.5C34.125 31.7321 34.2172 31.9546 34.3813 32.1187C34.5454 32.2828 34.7679 32.375 35 32.375ZM35.875 28.875H37.625V30.625H35.875V28.875Z" fill="#FEEEEE"/>
<path d="M17.5 40.25H21C21.2321 40.25 21.4546 40.1578 21.6187 39.9937C21.7828 39.8296 21.875 39.6071 21.875 39.375V35.875C21.875 35.6429 21.7828 35.4204 21.6187 35.2563C21.4546 35.0922 21.2321 35 21 35H17.5C17.2679 35 17.0454 35.0922 16.8813 35.2563C16.7172 35.4204 16.625 35.6429 16.625 35.875V39.375C16.625 39.6071 16.7172 39.8296 16.8813 39.9937C17.0454 40.1578 17.2679 40.25 17.5 40.25ZM18.375 36.75H20.125V38.5H18.375V36.75Z" fill="#F55951"/>
<path d="M8.75 40.25H12.25C12.4821 40.25 12.7046 40.1578 12.8687 39.9937C13.0328 39.8296 13.125 39.6071 13.125 39.375V35.875C13.125 35.6429 13.0328 35.4204 12.8687 35.2563C12.7046 35.0922 12.4821 35 12.25 35H8.75C8.51794 35 8.29538 35.0922 8.13128 35.2563C7.96719 35.4204 7.875 35.6429 7.875 35.875V39.375C7.875 39.6071 7.96719 39.8296 8.13128 39.9937C8.29538 40.1578 8.51794 40.25 8.75 40.25ZM9.625 36.75H11.375V38.5H9.625V36.75Z" fill="#FEEEEE"/>
<path d="M26.25 40.25H29.75C29.9821 40.25 30.2046 40.1578 30.3687 39.9937C30.5328 39.8296 30.625 39.6071 30.625 39.375V35.875C30.625 35.6429 30.5328 35.4204 30.3687 35.2563C30.2046 35.0922 29.9821 35 29.75 35H26.25C26.0179 35 25.7954 35.0922 25.6313 35.2563C25.4672 35.4204 25.375 35.6429 25.375 35.875V39.375C25.375 39.6071 25.4672 39.8296 25.6313 39.9937C25.7954 40.1578 26.0179 40.25 26.25 40.25ZM27.125 36.75H28.875V38.5H27.125V36.75Z" fill="#F55951"/>
<path d="M43.75 40.25H47.25C47.4821 40.25 47.7046 40.1578 47.8687 39.9937C48.0328 39.8296 48.125 39.6071 48.125 39.375V35.875C48.125 35.6429 48.0328 35.4204 47.8687 35.2563C47.7046 35.0922 47.4821 35 47.25 35H43.75C43.5179 35 43.2954 35.0922 43.1313 35.2563C42.9672 35.4204 42.875 35.6429 42.875 35.875V39.375C42.875 39.6071 42.9672 39.8296 43.1313 39.9937C43.2954 40.1578 43.5179 40.25 43.75 40.25ZM44.625 36.75H46.375V38.5H44.625V36.75Z" fill="#F55951"/>
<path d="M35 40.25H38.5C38.7321 40.25 38.9546 40.1578 39.1187 39.9937C39.2828 39.8296 39.375 39.6071 39.375 39.375V35.875C39.375 35.6429 39.2828 35.4204 39.1187 35.2563C38.9546 35.0922 38.7321 35 38.5 35H35C34.7679 35 34.5454 35.0922 34.3813 35.2563C34.2172 35.4204 34.125 35.6429 34.125 35.875V39.375C34.125 39.6071 34.2172 39.8296 34.3813 39.9937C34.5454 40.1578 34.7679 40.25 35 40.25ZM35.875 36.75H37.625V38.5H35.875V36.75Z" fill="#F55951"/>
<path d="M17.5 48.125H21C21.2321 48.125 21.4546 48.0328 21.6187 47.8687C21.7828 47.7046 21.875 47.4821 21.875 47.25V43.75C21.875 43.5179 21.7828 43.2954 21.6187 43.1313C21.4546 42.9672 21.2321 42.875 21 42.875H17.5C17.2679 42.875 17.0454 42.9672 16.8813 43.1313C16.7172 43.2954 16.625 43.5179 16.625 43.75V47.25C16.625 47.4821 16.7172 47.7046 16.8813 47.8687C17.0454 48.0328 17.2679 48.125 17.5 48.125ZM18.375 44.625H20.125V46.375H18.375V44.625Z" fill="#FEEEEE"/>
<path d="M8.75 48.125H12.25C12.4821 48.125 12.7046 48.0328 12.8687 47.8687C13.0328 47.7046 13.125 47.4821 13.125 47.25V43.75C13.125 43.5179 13.0328 43.2954 12.8687 43.1313C12.7046 42.9672 12.4821 42.875 12.25 42.875H8.75C8.51794 42.875 8.29538 42.9672 8.13128 43.1313C7.96719 43.2954 7.875 43.5179 7.875 43.75V47.25C7.875 47.4821 7.96719 47.7046 8.13128 47.8687C8.29538 48.0328 8.51794 48.125 8.75 48.125ZM9.625 44.625H11.375V46.375H9.625V44.625Z" fill="#FEEEEE"/>
<path d="M26.25 48.125H29.75C29.9821 48.125 30.2046 48.0328 30.3687 47.8687C30.5328 47.7046 30.625 47.4821 30.625 47.25V43.75C30.625 43.5179 30.5328 43.2954 30.3687 43.1313C30.2046 42.9672 29.9821 42.875 29.75 42.875H26.25C26.0179 42.875 25.7954 42.9672 25.6313 43.1313C25.4672 43.2954 25.375 43.5179 25.375 43.75V47.25C25.375 47.4821 25.4672 47.7046 25.6313 47.8687C25.7954 48.0328 26.0179 48.125 26.25 48.125ZM27.125 44.625H28.875V46.375H27.125V44.625Z" fill="#FEEEEE"/>
<path d="M35 48.125H38.5C38.7321 48.125 38.9546 48.0328 39.1187 47.8687C39.2828 47.7046 39.375 47.4821 39.375 47.25V43.75C39.375 43.5179 39.2828 43.2954 39.1187 43.1313C38.9546 42.9672 38.7321 42.875 38.5 42.875H35C34.7679 42.875 34.5454 42.9672 34.3813 43.1313C34.2172 43.2954 34.125 43.5179 34.125 43.75V47.25C34.125 47.4821 34.2172 47.7046 34.3813 47.8687C34.5454 48.0328 34.7679 48.125 35 48.125ZM35.875 44.625H37.625V46.375H35.875V44.625Z" fill="#FEEEEE"/>
<path d="M51.625 5.25H49V4.375C49 3.67881 48.7234 3.01113 48.2312 2.51884C47.7389 2.02656 47.0712 1.75 46.375 1.75C45.6788 1.75 45.0111 2.02656 44.5188 2.51884C44.0266 3.01113 43.75 3.67881 43.75 4.375V5.25H36.75V4.375C36.75 3.67881 36.4734 3.01113 35.9812 2.51884C35.4889 2.02656 34.8212 1.75 34.125 1.75C33.4288 1.75 32.7611 2.02656 32.2688 2.51884C31.7766 3.01113 31.5 3.67881 31.5 4.375V5.25H24.5V4.375C24.5 3.67881 24.2234 3.01113 23.7312 2.51884C23.2389 2.02656 22.5712 1.75 21.875 1.75C21.1788 1.75 20.5111 2.02656 20.0188 2.51884C19.5266 3.01113 19.25 3.67881 19.25 4.375V5.25H12.25V4.375C12.25 3.67881 11.9734 3.01113 11.4812 2.51884C10.9889 2.02656 10.3212 1.75 9.625 1.75C8.92881 1.75 8.26113 2.02656 7.76884 2.51884C7.27656 3.01113 7 3.67881 7 4.375V5.25H4.375C3.67906 5.25081 3.01185 5.52763 2.51974 6.01974C2.02763 6.51185 1.75081 7.17906 1.75 7.875V51.625C1.75081 52.3209 2.02763 52.9882 2.51974 53.4803C3.01185 53.9724 3.67906 54.2492 4.375 54.25H51.625C52.3209 54.2492 52.9882 53.9724 53.4803 53.4803C53.9724 52.9882 54.2492 52.3209 54.25 51.625V7.875C54.2492 7.17906 53.9724 6.51185 53.4803 6.01974C52.9882 5.52763 52.3209 5.25081 51.625 5.25ZM45.5 4.375C45.5 4.14294 45.5922 3.92038 45.7563 3.75628C45.9204 3.59219 46.1429 3.5 46.375 3.5C46.6071 3.5 46.8296 3.59219 46.9937 3.75628C47.1578 3.92038 47.25 4.14294 47.25 4.375V7.875C47.25 8.10706 47.1578 8.32962 46.9937 8.49372C46.8296 8.65781 46.6071 8.75 46.375 8.75C46.1429 8.75 45.9204 8.65781 45.7563 8.49372C45.5922 8.32962 45.5 8.10706 45.5 7.875V4.375ZM33.25 4.375C33.25 4.14294 33.3422 3.92038 33.5063 3.75628C33.6704 3.59219 33.8929 3.5 34.125 3.5C34.3571 3.5 34.5796 3.59219 34.7437 3.75628C34.9078 3.92038 35 4.14294 35 4.375V7.875C35 8.10706 34.9078 8.32962 34.7437 8.49372C34.5796 8.65781 34.3571 8.75 34.125 8.75C33.8929 8.75 33.6704 8.65781 33.5063 8.49372C33.3422 8.32962 33.25 8.10706 33.25 7.875V4.375ZM21 4.375C21 4.14294 21.0922 3.92038 21.2563 3.75628C21.4204 3.59219 21.6429 3.5 21.875 3.5C22.1071 3.5 22.3296 3.59219 22.4937 3.75628C22.6578 3.92038 22.75 4.14294 22.75 4.375V7.875C22.75 8.10706 22.6578 8.32962 22.4937 8.49372C22.3296 8.65781 22.1071 8.75 21.875 8.75C21.6429 8.75 21.4204 8.65781 21.2563 8.49372C21.0922 8.32962 21 8.10706 21 7.875V4.375ZM8.75 4.375C8.75 4.14294 8.84219 3.92038 9.00628 3.75628C9.17038 3.59219 9.39294 3.5 9.625 3.5C9.85706 3.5 10.0796 3.59219 10.2437 3.75628C10.4078 3.92038 10.5 4.14294 10.5 4.375V7.875C10.5 8.10706 10.4078 8.32962 10.2437 8.49372C10.0796 8.65781 9.85706 8.75 9.625 8.75C9.39294 8.75 9.17038 8.65781 9.00628 8.49372C8.84219 8.32962 8.75 8.10706 8.75 7.875V4.375ZM3.5 7.875C3.50026 7.64302 3.59253 7.42061 3.75657 7.25657C3.92061 7.09253 4.14302 7.00026 4.375 7H7V7.875C7 8.57119 7.27656 9.23887 7.76884 9.73116C8.26113 10.2234 8.92881 10.5 9.625 10.5C10.3212 10.5 10.9889 10.2234 11.4812 9.73116C11.9734 9.23887 12.25 8.57119 12.25 7.875V7H19.25V7.875C19.25 8.57119 19.5266 9.23887 20.0188 9.73116C20.5111 10.2234 21.1788 10.5 21.875 10.5C22.5712 10.5 23.2389 10.2234 23.7312 9.73116C24.2234 9.23887 24.5 8.57119 24.5 7.875V7H31.5V7.875C31.5 8.57119 31.7766 9.23887 32.2688 9.73116C32.7611 10.2234 33.4288 10.5 34.125 10.5C34.8212 10.5 35.4889 10.2234 35.9812 9.73116C36.4734 9.23887 36.75 8.57119 36.75 7.875V7H43.75V7.875C43.75 8.57119 44.0266 9.23887 44.5188 9.73116C45.0111 10.2234 45.6788 10.5 46.375 10.5C47.0712 10.5 47.7389 10.2234 48.2312 9.73116C48.7234 9.23887 49 8.57119 49 7.875V7H51.625C51.857 7.00026 52.0794 7.09253 52.2434 7.25657C52.4075 7.42061 52.4997 7.64302 52.5 7.875V13.125H3.5V7.875ZM52.5 51.625C52.4997 51.857 52.4075 52.0794 52.2434 52.2434C52.0794 52.4075 51.857 52.4997 51.625 52.5H4.375C4.14302 52.4997 3.92061 52.4075 3.75657 52.2434C3.59253 52.0794 3.50026 51.857 3.5 51.625V14.875H52.5V51.625Z" fill="#FEEEEE"/>
</svg>
