<svg width="56" height="56" viewBox="0 0 56 56" fill="none" xmlns="http://www.w3.org/2000/svg">
<g clip-path="url(#clip0)">
<path d="M42.001 13.1684C41.7399 13.1684 41.4849 13.1936 41.2264 13.2077C37.0359 3.3087 26.1683 -1.96317 15.7997 0.873359C5.43113 3.70989 -1.23914 13.7798 0.193011 24.4333C1.62516 35.0869 10.718 43.0376 21.4676 43.0355C26.0687 43.0517 30.5493 41.5666 34.2301 38.8057C35.4687 39.6315 36.8321 40.2536 38.2676 40.648V52.3688C38.2676 54.4307 39.9391 56.1025 42.001 56.1025C44.0629 56.1025 45.7343 54.4307 45.7343 52.3688V40.648C52.4832 38.7822 56.8138 32.2153 55.8713 25.2776C54.9288 18.3394 49.0028 13.1658 42.001 13.1684ZM21.4676 41.1688C11.7177 41.1722 3.44782 34.0089 2.06011 24.3586C0.671961 14.7082 6.58813 5.5052 15.9437 2.76096C25.2988 0.0162909 35.2491 4.56525 39.2943 13.4363C38.6714 13.5619 38.0583 13.7298 37.4584 13.9392C33.6772 6.01662 24.6665 2.05514 16.2722 4.62421C7.87758 7.19327 2.62792 15.5196 3.92891 24.2013C5.22947 32.8835 12.6884 39.3056 21.4676 39.3021C25.0002 39.3056 28.4515 38.2434 31.3714 36.2545C31.7849 36.7361 32.2314 37.1885 32.7069 37.6089C29.4231 39.9387 25.4936 41.1833 21.4676 41.1688ZM28.0008 27.1686C28.005 27.9953 28.0819 28.8204 28.2315 29.6334C28.446 30.8001 28.338 30.4031 28.6758 31.4471C29.0539 32.6156 29.5846 33.7291 30.2541 34.7587C27.6572 36.5062 24.5977 37.438 21.4676 37.4355C13.619 37.4423 6.94489 31.7103 5.76652 23.9505C4.58816 16.1912 9.25974 8.73608 16.7563 6.41268C24.2529 4.08929 32.322 7.59575 35.7383 14.6616C31.0009 17.0312 28.0063 21.8715 28.0008 27.1686ZM42.001 54.2355C40.97 54.2355 40.1343 53.3998 40.1343 52.3688V45.8357H43.8676V52.3688C43.8676 53.3998 43.0319 54.2355 42.001 54.2355ZM43.8676 43.969H40.1343V41.0299C41.3721 41.2149 42.6303 41.2149 43.8676 41.0299V43.969ZM42.001 39.3021C35.2999 39.3021 29.8674 33.8696 29.8674 27.1686C29.8674 20.4676 35.2999 15.0351 42.001 15.0351C48.7024 15.0351 54.1345 20.4676 54.1345 27.1686C54.1268 33.8666 48.699 39.2944 42.001 39.3021Z" fill="#FEEEEE"/>
<path d="M50.9284 30.0468C50.4563 29.8408 49.9064 30.0566 49.7 30.5283C49.574 30.8163 49.4317 31.0965 49.2745 31.3683C49.0908 31.658 49.0801 32.0245 49.2472 32.324C49.4142 32.6235 49.7321 32.8073 50.0747 32.8026C50.4178 32.7979 50.7306 32.6056 50.8895 32.3018C51.0822 31.9698 51.2561 31.6268 51.4103 31.2751C51.6158 30.803 51.4005 30.2531 50.9284 30.0468Z" fill="#F55951"/>
<path d="M42.0015 16.8999C41.4862 16.8999 41.0684 17.3178 41.0684 17.8334C41.0684 18.3487 41.4862 18.7666 42.0015 18.7666C46.6389 18.7717 50.3966 22.5298 50.4017 27.1668C50.4017 27.682 50.8195 28.1003 51.3352 28.1003C51.8505 28.1003 52.2684 27.682 52.2684 27.1668C52.2615 21.4993 47.669 16.9067 42.0015 16.8999Z" fill="#F55951"/>
<path d="M16.0228 21.4081C18.0343 21.8345 20.0117 20.5545 20.4458 18.5447C20.5568 18.0567 20.5662 17.5509 20.4731 17.0587C20.4159 16.7651 20.4838 16.4609 20.6598 16.2187C21.6446 14.7917 21.5173 12.8742 20.3522 11.5898C19.1866 10.3055 17.2905 9.99233 15.7746 10.8344C14.8321 11.3536 14.1622 12.2576 13.9396 13.3104C13.8169 13.85 13.8186 14.4106 13.9451 14.9493C13.969 15.1937 13.8934 15.4372 13.7362 15.6252C13.4533 16.0281 13.2551 16.4844 13.1538 16.9664C12.7223 18.9847 14.0053 20.9719 16.0228 21.4081ZM14.9795 17.3565C15.0299 17.1185 15.1273 16.8929 15.2657 16.6929C15.7366 16.0739 15.9182 15.2822 15.7643 14.5199C15.7011 14.252 15.7011 13.9726 15.7643 13.7043C15.9446 12.8489 16.6988 12.2358 17.5729 12.2341C17.8066 12.2354 18.0382 12.2777 18.2574 12.3593C18.9499 12.6272 19.4182 13.2805 19.449 14.0226C19.4648 14.4268 19.3494 14.825 19.1204 15.1587C18.6624 15.8119 18.4885 16.6233 18.6389 17.4069C18.685 17.6517 18.6795 17.9029 18.6222 18.1452C18.5206 18.8348 18.0433 19.4103 17.3841 19.6376C16.7252 19.8649 15.9946 19.7059 15.4896 19.2261C14.9842 18.7459 14.7885 18.0243 14.982 17.3548L14.9795 17.3565Z" fill="#F55951"/>
<path d="M14.934 24.8348C14.4183 24.8348 14.0004 25.2526 14.0004 25.7679C14.0004 26.5412 13.3737 27.168 12.6003 27.168C11.8274 27.168 11.2006 26.5412 11.2006 25.7679C11.2006 24.9945 11.8274 24.3678 12.6003 24.3678C13.116 24.3678 13.5339 23.9499 13.5339 23.4346C13.5339 22.919 13.116 22.5011 12.6003 22.5011C10.7965 22.5011 9.33398 23.964 9.33398 25.7679C9.33398 27.5722 10.7965 29.0346 12.6003 29.0346C14.4046 29.0346 15.8671 27.5722 15.8671 25.7679C15.8671 25.2526 15.4492 24.8348 14.934 24.8348Z" fill="#F55951"/>
<path d="M27.5344 10.3673C25.7301 10.3673 24.2676 11.8302 24.2676 13.6341C24.2676 15.4384 25.7301 16.9009 27.5344 16.9009C29.3386 16.9009 30.8011 15.4384 30.8011 13.6341C30.8011 11.8302 29.3386 10.3673 27.5344 10.3673ZM27.5344 15.0342C26.761 15.0342 26.1342 14.4074 26.1342 13.6341C26.1342 12.8612 26.761 12.234 27.5344 12.234C28.3077 12.234 28.9345 12.8612 28.9345 13.6341C28.9345 14.4074 28.3077 15.0342 27.5344 15.0342Z" fill="#F55951"/>
<path d="M21.4682 24.3673C19.9215 24.3673 18.668 25.6213 18.668 27.1675C18.668 28.7137 19.9215 29.9677 21.4682 29.9677C23.0144 29.9677 24.268 28.7137 24.268 27.1675C24.268 25.6213 23.0144 24.3673 21.4682 24.3673ZM21.4682 28.1011C20.9525 28.1011 20.5346 27.6828 20.5346 27.1675C20.5346 26.6522 20.9525 26.234 21.4682 26.234C21.9835 26.234 22.4013 26.6522 22.4013 27.1675C22.4013 27.6828 21.9835 28.1011 21.4682 28.1011Z" fill="#F55951"/>
<path d="M10.2671 18.767V15.9672C10.2671 15.4515 9.84921 15.0337 9.33394 15.0337C8.81824 15.0337 8.40039 15.4515 8.40039 15.9672V18.767C8.40039 19.2827 8.81824 19.7006 9.33394 19.7006C9.84921 19.7006 10.2671 19.2827 10.2671 18.767Z" fill="#F55951"/>
<path d="M25.9349 19.1241L23.1992 19.7222C22.7335 19.8239 22.419 20.2601 22.4703 20.734C22.5212 21.2082 22.9211 21.5675 23.3979 21.5675C23.4654 21.5675 23.5329 21.5607 23.5987 21.5462L26.3344 20.9476C26.66 20.8762 26.9231 20.6365 27.024 20.3187C27.1252 20.0008 27.0492 19.6534 26.8244 19.4069C26.5997 19.1604 26.2605 19.0527 25.9349 19.1241Z" fill="#F55951"/>
<path d="M16.1383 31.1721C15.9674 31.3506 15.8708 31.5873 15.8674 31.8347C15.8644 31.9569 15.8901 32.0787 15.9422 32.1894C15.9896 32.3021 16.0558 32.4064 16.1383 32.4974C16.5062 32.8584 17.0953 32.8584 17.4636 32.4974C17.5461 32.4064 17.6123 32.3021 17.6597 32.1894C17.7076 32.077 17.7328 31.9565 17.7341 31.8347C17.7367 31.4553 17.5089 31.1127 17.159 30.967C16.8087 30.8217 16.4053 30.9029 16.1383 31.1721Z" fill="#F55951"/>
<path d="M22.6716 33.0383C22.5007 33.2169 22.4037 33.4535 22.4007 33.7009C22.3973 33.8231 22.4229 33.9449 22.4755 34.0555C22.5229 34.1683 22.5891 34.2726 22.6716 34.3636C23.0394 34.7246 23.6286 34.7246 23.9969 34.3636C24.0789 34.2726 24.1456 34.1683 24.1926 34.0555C24.2404 33.9432 24.2661 33.8227 24.2674 33.7009C24.2695 33.3215 24.0422 32.9789 23.6918 32.8332C23.3419 32.6879 22.9386 32.7691 22.6716 33.0383Z" fill="#F55951"/>
<path d="M21.7385 10.0868C22.1064 10.4478 22.696 10.4478 23.0639 10.0868C23.1463 9.99581 23.2126 9.89113 23.26 9.77791C23.3078 9.66554 23.3335 9.54463 23.3347 9.42244C23.3347 8.90674 22.9169 8.48889 22.4012 8.48889C21.8859 8.48889 21.4681 8.90674 21.4681 9.42244C21.4647 9.54463 21.4903 9.66554 21.5424 9.7762C21.5898 9.88985 21.6561 9.99495 21.7385 10.0868Z" fill="#F55951"/>
</g>
<defs>
<clipPath id="clip0">
<rect width="56" height="56" fill="white"/>
</clipPath>
</defs>
</svg>
