<svg width="56" height="56" viewBox="0 0 56 56" fill="none" xmlns="http://www.w3.org/2000/svg">
<path d="M37.625 27.125H35.875C35.875 27.3429 34.944 28 33.25 28C31.556 28 30.625 27.3429 30.625 27.125H28.875C28.875 28.6213 30.7554 29.75 33.25 29.75C35.7446 29.75 37.625 28.6213 37.625 27.125Z" fill="#FEEEEE"/>
<path d="M23.625 48.125C23.625 47.6418 24.0168 47.25 24.5 47.25H28C28.4832 47.25 28.875 47.6418 28.875 48.125C28.875 48.6082 28.4832 49 28 49H24.5C24.0168 49 23.625 48.6082 23.625 48.125Z" fill="#F55951"/>
<path d="M37.625 48.125C37.625 47.6418 38.0168 47.25 38.5 47.25H42C42.4832 47.25 42.875 47.6418 42.875 48.125C42.875 48.6082 42.4832 49 42 49H38.5C38.0168 49 37.625 48.6082 37.625 48.125Z" fill="#F55951"/>
<path d="M16.625 28H6.125C5.89294 28 5.67038 28.0922 5.50628 28.2563C5.34219 28.4204 5.25 28.6429 5.25 28.875V32.375C5.25 32.6071 5.34219 32.8296 5.50628 32.9937C5.67038 33.1578 5.89294 33.25 6.125 33.25H16.625C16.8571 33.25 17.0796 33.1578 17.2437 32.9937C17.4078 32.8296 17.5 32.6071 17.5 32.375V28.875C17.5 28.6429 17.4078 28.4204 17.2437 28.2563C17.0796 28.0922 16.8571 28 16.625 28ZM15.75 31.5H7V29.75H15.75V31.5Z" fill="#F55951"/>
<path d="M9.625 35H6.125C5.89294 35 5.67038 35.0922 5.50628 35.2563C5.34219 35.4204 5.25 35.6429 5.25 35.875V39.375C5.25 39.6071 5.34219 39.8296 5.50628 39.9937C5.67038 40.1578 5.89294 40.25 6.125 40.25H9.625C9.85706 40.25 10.0796 40.1578 10.2437 39.9937C10.4078 39.8296 10.5 39.6071 10.5 39.375V35.875C10.5 35.6429 10.4078 35.4204 10.2437 35.2563C10.0796 35.0922 9.85706 35 9.625 35ZM8.75 38.5H7V36.75H8.75V38.5Z" fill="#FEEEEE"/>
<path d="M16.625 35H13.125C12.8929 35 12.6704 35.0922 12.5063 35.2563C12.3422 35.4204 12.25 35.6429 12.25 35.875V39.375C12.25 39.6071 12.3422 39.8296 12.5063 39.9937C12.6704 40.1578 12.8929 40.25 13.125 40.25H16.625C16.8571 40.25 17.0796 40.1578 17.2437 39.9937C17.4078 39.8296 17.5 39.6071 17.5 39.375V35.875C17.5 35.6429 17.4078 35.4204 17.2437 35.2563C17.0796 35.0922 16.8571 35 16.625 35ZM15.75 38.5H14V36.75H15.75V38.5Z" fill="#FEEEEE"/>
<path d="M16.625 42H13.125C12.8929 42 12.6704 42.0922 12.5063 42.2563C12.3422 42.4204 12.25 42.6429 12.25 42.875V46.375C12.25 46.6071 12.3422 46.8296 12.5063 46.9937C12.6704 47.1578 12.8929 47.25 13.125 47.25H16.625C16.8571 47.25 17.0796 47.1578 17.2437 46.9937C17.4078 46.8296 17.5 46.6071 17.5 46.375V42.875C17.5 42.6429 17.4078 42.4204 17.2437 42.2563C17.0796 42.0922 16.8571 42 16.625 42ZM15.75 45.5H14V43.75H15.75V45.5Z" fill="#FEEEEE"/>
<path d="M9.625 42H6.125C5.89294 42 5.67038 42.0922 5.50628 42.2563C5.34219 42.4204 5.25 42.6429 5.25 42.875V46.375C5.25 46.6071 5.34219 46.8296 5.50628 46.9937C5.67038 47.1578 5.89294 47.25 6.125 47.25H9.625C9.85706 47.25 10.0796 47.1578 10.2437 46.9937C10.4078 46.8296 10.5 46.6071 10.5 46.375V42.875C10.5 42.6429 10.4078 42.4204 10.2437 42.2563C10.0796 42.0922 9.85706 42 9.625 42ZM8.75 45.5H7V43.75H8.75V45.5Z" fill="#FEEEEE"/>
<path d="M3.5 7.875C3.5 7.39175 3.89175 7 4.375 7H6.125C6.60825 7 7 7.39175 7 7.875C7 8.35825 6.60825 8.75 6.125 8.75H4.375C3.89175 8.75 3.5 8.35825 3.5 7.875Z" fill="#F55951"/>
<path d="M8.75 7.875C8.75 7.39175 9.14175 7 9.625 7H15.75C16.2332 7 16.625 7.39175 16.625 7.875C16.625 8.35825 16.2332 8.75 15.75 8.75H9.625C9.14175 8.75 8.75 8.35825 8.75 7.875Z" fill="#FEEEEE"/>
<path d="M3.5 13.125C3.5 12.6418 3.89175 12.25 4.375 12.25H6.125C6.60825 12.25 7 12.6418 7 13.125C7 13.6082 6.60825 14 6.125 14H4.375C3.89175 14 3.5 13.6082 3.5 13.125Z" fill="#F55951"/>
<path d="M8.75 13.125C8.75 12.6418 9.14175 12.25 9.625 12.25H15.75C16.2332 12.25 16.625 12.6418 16.625 13.125C16.625 13.6082 16.2332 14 15.75 14H9.625C9.14175 14 8.75 13.6082 8.75 13.125Z" fill="#FEEEEE"/>
<path d="M3.5 18.375C3.5 17.8918 3.89175 17.5 4.375 17.5H6.125C6.60825 17.5 7 17.8918 7 18.375C7 18.8582 6.60825 19.25 6.125 19.25H4.375C3.89175 19.25 3.5 18.8582 3.5 18.375Z" fill="#F55951"/>
<path d="M8.75 18.375C8.75 17.8918 9.14175 17.5 9.625 17.5H15.75C16.2332 17.5 16.625 17.8918 16.625 18.375C16.625 18.8582 16.2332 19.25 15.75 19.25H9.625C9.14175 19.25 8.75 18.8582 8.75 18.375Z" fill="#FEEEEE"/>
<path fill-rule="evenodd" clip-rule="evenodd" d="M37.625 35.1654L49.3903 37.6434C50.7629 37.9371 51.9936 38.6919 52.8777 39.7822C53.7618 40.8725 54.2461 42.2325 54.25 43.6362V53.375C54.25 53.6071 54.1578 53.8296 53.9937 53.9937C53.8296 54.1578 53.6071 54.25 53.375 54.25H13.125C12.8929 54.25 12.6704 54.1578 12.5063 53.9937C12.3422 53.8296 12.25 53.6071 12.25 53.375V50.75H4.375C3.67881 50.75 3.01113 50.4734 2.51884 49.9812C2.02656 49.4889 1.75 48.8212 1.75 48.125V27.125C1.75 26.4288 2.02656 25.7611 2.51884 25.2688C3.01113 24.7766 3.67881 24.5 4.375 24.5H18.375C19.0712 24.5 19.7389 24.7766 20.2312 25.2688C20.7234 25.7611 21 26.4288 21 27.125V36.8305L28.875 35.168V33.25C27.0691 32.4922 25.489 31.2819 24.287 29.7358C23.0849 28.1897 22.3015 26.3599 22.0124 24.423C21.2721 24.3019 20.576 23.9908 19.9918 23.5203C19.4076 23.0498 18.9554 22.4359 18.6794 21.7385C18.4033 21.041 18.3127 20.2839 18.4166 19.5411C18.5204 18.7982 18.8151 18.095 19.2719 17.5H19.25C19.0179 17.5 18.7954 17.4078 18.6313 17.2437C18.4672 17.0796 18.375 16.8571 18.375 16.625C18.375 12.6799 19.9422 8.89639 22.7318 6.10679C25.5214 3.31718 29.3049 1.75 33.25 1.75C37.1951 1.75 40.9786 3.31718 43.7682 6.10679C46.5578 8.89639 48.125 12.6799 48.125 16.625C48.125 16.8571 48.0328 17.0796 47.8687 17.2437C47.7046 17.4078 47.4821 17.5 47.25 17.5H47.2272C47.6848 18.0951 47.9801 18.7987 48.0844 19.542C48.1888 20.2854 48.0985 21.0431 47.8225 21.7412C47.5465 22.4392 47.0941 23.0537 46.5096 23.5247C45.9251 23.9957 45.2284 24.307 44.4876 24.4282C44.1975 26.3642 43.4137 28.1929 42.2118 29.738C41.0098 31.2831 39.4301 32.4926 37.625 33.25V35.1654ZM29.6415 37.6136L27.6666 40.5755L31.6164 41.5625L29.6415 37.6136ZM36.8585 37.6136L34.8836 41.5625L38.8334 40.5755L36.8585 37.6136ZM24.4125 17.0485L37.4631 13.2125L42.4007 16.7396L42.875 18.7372V22.75C42.875 25.3027 41.8609 27.7509 40.0559 29.5559C38.2509 31.3609 35.8027 32.375 33.25 32.375C30.6973 32.375 28.2491 31.3609 26.4441 29.5559C24.6391 27.7509 23.625 25.3027 23.625 22.75V18.7372C23.625 17.0485 23.625 17.5 24.4125 17.0485ZM44.625 17.6575V22.5837C45.1351 22.4052 45.5773 22.0728 45.8907 21.6325C46.2041 21.1921 46.3733 20.6655 46.375 20.125C46.3787 19.5822 46.2117 19.052 45.8977 18.6092C45.5837 18.1664 45.1385 17.8335 44.625 17.6575ZM42.2117 7.04469C39.781 4.77107 36.5783 3.50427 33.25 3.5C29.9217 3.50427 26.719 4.77107 24.2883 7.04469C21.8577 9.31831 20.3801 12.4294 20.1539 15.75H22.624L37.3783 11.4109C37.5055 11.3734 37.6396 11.3653 37.7704 11.3873C37.9012 11.4093 38.0254 11.4607 38.1334 11.5378L44.0309 15.75H46.3461C46.1199 12.4294 44.6423 9.31831 42.2117 7.04469ZM20.888 18.2717C20.3994 18.7648 20.1252 19.4308 20.125 20.125C20.1274 20.6658 20.2968 21.1927 20.6101 21.6336C20.9233 22.0745 21.3651 22.4079 21.875 22.5881V17.6592C21.5052 17.7888 21.1683 17.9979 20.888 18.2717ZM35.875 33.8074C35.0154 34.0152 34.1344 34.1218 33.25 34.125C32.3656 34.1218 31.4846 34.0152 30.625 33.8074V35.6685L33.25 40.9185L35.875 35.6685V33.8074ZM3.5 27.125V48.125C3.5 48.3571 3.59219 48.5796 3.75628 48.7437C3.92038 48.9078 4.14294 49 4.375 49H18.375C18.6071 49 18.8296 48.9078 18.9937 48.7437C19.1578 48.5796 19.25 48.3571 19.25 48.125V27.125C19.25 26.8929 19.1578 26.6704 18.9937 26.5063C18.8296 26.3422 18.6071 26.25 18.375 26.25H4.375C4.14294 26.25 3.92038 26.3422 3.75628 26.5063C3.59219 26.6704 3.5 26.8929 3.5 27.125ZM18.375 50.75H14V52.5H30.625V43.1209L26.0374 41.9738C25.9014 41.9397 25.7755 41.8734 25.6705 41.7806C25.5654 41.6877 25.4842 41.571 25.4337 41.4402C25.3831 41.3094 25.3648 41.1684 25.3802 41.029C25.3955 40.8896 25.4442 40.756 25.522 40.6394L27.8329 37.1735L21 38.6146V48.125C21 48.8212 20.7234 49.4889 20.2312 49.9812C19.7389 50.4734 19.0712 50.75 18.375 50.75ZM32.375 43.5584V52.5H34.125V43.5584L33.4609 43.7238C33.3225 43.7634 33.1758 43.7634 33.0374 43.7238L32.375 43.5584ZM47.25 52.5H52.5V43.6362C52.4976 42.6339 52.152 41.6626 51.5208 40.884C50.8896 40.1053 50.0108 39.5663 49.0306 39.3566L38.6671 37.1735L40.978 40.6394C41.0558 40.756 41.1045 40.8896 41.1198 41.029C41.1352 41.1684 41.1169 41.3094 41.0663 41.4402C41.0158 41.571 40.9346 41.6877 40.8295 41.7806C40.7245 41.8734 40.5986 41.9397 40.4626 41.9738L35.875 43.1209V52.5H45.5V46.375H47.25V52.5Z" fill="#FEEEEE"/>
</svg>
