<svg width="64" height="64" viewBox="0 0 64 64" fill="none" xmlns="http://www.w3.org/2000/svg">
<path opacity="0.9" d="M11.71 63.7429C18.6683 64.9351 33.9973 62.2174 36.7105 50.5928C38.5144 42.8641 38.4614 36.559 43.0139 36.4406C45.7227 36.3703 47.1352 41.9891 50.8751 42.4513C55.7559 43.0544 59.1432 38.9833 61.2572 35.2965C65.9078 27.1859 64.4536 13.3936 58.3379 6.66759C43.5269 -9.62157 25.9383 7.41289 18.4182 20.7307C13.595 29.2723 2.71351 36.1767 0.447255 45.8055C-1.44987 53.8665 2.76013 62.2095 11.71 63.7429V63.7429Z" fill="url(#paint0_linear)"/>
<rect x="20.8" y="54.4" width="20.8" height="1.6" fill="white"/>
<rect x="25.6001" y="48" width="11.2" height="6.4" fill="white"/>
<rect x="8" y="14.4" width="46.4" height="32" fill="white"/>
<path d="M45.7353 8.10495V41.7954H16.0752V8.10495C16.0752 7.50497 16.5614 7.0188 17.1613 7.0188H44.6491C45.2491 7.0188 45.7353 7.50497 45.7353 8.10495V8.10495Z" fill="white"/>
<path d="M23 18.8002C25.0987 18.8002 26.8 17.0988 26.8 15.0001C26.8 12.9014 25.0987 11.2001 23 11.2001C20.9013 11.2001 19.2 12.9014 19.2 15.0001C19.2 17.0988 20.9013 18.8002 23 18.8002Z" fill="#FF4D4D"/>
<path d="M24.7683 14.1997H23.8006V13.232C23.8006 12.9301 23.5558 12.6852 23.2538 12.6852H22.7463C22.4443 12.6852 22.1995 12.9301 22.1995 13.232V14.1997H21.2318C20.9299 14.1997 20.6851 14.4445 20.6851 14.7465V15.254C20.6851 15.556 20.9299 15.8008 21.2318 15.8008H22.1995V16.7685C22.1995 17.0704 22.4443 17.3152 22.7463 17.3152H23.2538C23.5558 17.3152 23.8006 17.0704 23.8006 16.7685V15.8008H24.7683C25.0702 15.8008 25.3151 15.556 25.3151 15.254V14.7465C25.3151 14.4445 25.0702 14.1997 24.7683 14.1997V14.1997Z" fill="white"/>
<path d="M36.9508 22.4H19.8185C19.4768 22.4 19.2 22.0418 19.2 21.6C19.2 21.1583 19.4768 20.8 19.8185 20.8H36.9508C37.2925 20.8 37.5693 21.1583 37.5693 21.6C37.5693 22.0418 37.2925 22.4 36.9508 22.4Z" fill="#F55951"/>
<path d="M36.9508 25.6001H19.8185C19.4768 25.6001 19.2 25.2418 19.2 24.8001C19.2 24.3583 19.4768 24.0001 19.8185 24.0001H36.9508C37.2925 24.0001 37.5693 24.3583 37.5693 24.8001C37.5693 25.2418 37.2925 25.6001 36.9508 25.6001Z" fill="#F55951"/>
<path d="M36.9508 33.6001H19.8185C19.4768 33.6001 19.2 33.2418 19.2 32.8001C19.2 32.3583 19.4768 32.0001 19.8185 32.0001H36.9508C37.2925 32.0001 37.5693 32.3583 37.5693 32.8001C37.5693 33.2418 37.2925 33.6001 36.9508 33.6001Z" fill="#F55951"/>
<path d="M30.5508 28.8001H19.8185C19.4768 28.8001 19.2 28.4418 19.2 28.0001C19.2 27.5583 19.4768 27.2001 19.8185 27.2001H30.5508C30.8925 27.2001 31.1693 27.5583 31.1693 28.0001C31.1693 28.4418 30.8925 28.8001 30.5508 28.8001Z" fill="#F55951"/>
<path d="M30.5508 36.8001H19.8185C19.4768 36.8001 19.2 36.4418 19.2 36.0001C19.2 35.5583 19.4768 35.2001 19.8185 35.2001H30.5508C30.8925 35.2001 31.1693 35.5583 31.1693 36.0001C31.1693 36.4418 30.8925 36.8001 30.5508 36.8001Z" fill="#F55951"/>
<path d="M55.9926 24.8515H41.9568C41.2736 24.8515 40.7197 24.2976 40.7197 23.6144V15.7182C40.7197 15.0349 41.2736 14.4811 41.9568 14.4811H55.9925C56.6758 14.4811 57.2296 15.0349 57.2296 15.7182V23.6144C57.2297 24.2976 56.6759 24.8515 55.9926 24.8515V24.8515Z" fill="white"/>
<path d="M55.9926 13.8625H46.3538V8.10459C46.3538 7.16466 45.589 6.40002 44.6491 6.40002H17.1613C16.2213 6.40002 15.4566 7.16478 15.4566 8.10459V13.975H8.87405C7.5098 13.975 6.3999 15.0849 6.3999 16.4491V45.2436C6.3999 46.6079 7.5098 47.7178 8.87405 47.7178H15.3865C15.7281 47.7178 16.005 47.4409 16.005 47.0992C16.005 46.7576 15.7281 46.4807 15.3865 46.4807H8.87405C8.19193 46.4807 7.63698 45.9258 7.63698 45.2436V42.4142H54.1736V45.2436C54.1736 45.9258 53.6186 46.4807 52.9365 46.4807H14.8974C14.5558 46.4807 14.2789 46.7576 14.2789 47.0992C14.2789 47.4409 14.5558 47.7178 14.8974 47.7178H24.0073V53.503H21.785C20.7618 53.503 19.9294 54.3354 19.9294 55.3586V56.363C19.9294 57.0451 20.4844 57.6 21.1665 57.6H40.6438C41.3259 57.6 41.8809 57.0451 41.8809 56.363V55.3586C41.8809 54.3354 41.0485 53.503 40.0253 53.503H37.8031V47.7178H52.9365C54.3007 47.7178 55.4106 46.6079 55.4106 45.2436V25.47H55.9926C57.0158 25.47 57.8482 24.6376 57.8482 23.6144V15.7182C57.8482 14.695 57.0158 13.8625 55.9926 13.8625ZM40.6439 55.3586L40.6447 56.363H21.1665V55.3586C21.1665 55.0175 21.444 54.74 21.785 54.74H40.0253C40.3663 54.74 40.6439 55.0175 40.6439 55.3586ZM36.5661 53.503H25.2444V47.7178H36.5661V53.503ZM7.63698 16.4493C7.63698 15.7671 8.19193 15.2122 8.87405 15.2122H15.4566V41.1773H7.63698V16.4493ZM54.1736 41.1771H46.3538V24.8515C46.3538 24.5098 46.0769 24.2329 45.7352 24.2329C45.3936 24.2329 45.1167 24.5098 45.1167 24.8515V41.1773H16.6937V8.10459C16.6937 7.84678 16.9035 7.6371 17.1613 7.6371H44.6491C44.9069 7.6371 45.1167 7.84678 45.1167 8.10459V13.8625H41.9567C40.9335 13.8625 40.1011 14.695 40.1011 15.7182V23.6144C40.1011 24.6376 40.9335 25.47 41.9567 25.47H54.1736V41.1771ZM56.6111 23.6144C56.6111 23.9555 56.3336 24.2329 55.9926 24.2329H41.9567C41.6157 24.2329 41.3382 23.9555 41.3382 23.6144V15.7182C41.3382 15.3771 41.6157 15.0996 41.9567 15.0996H55.9926C56.3336 15.0996 56.6111 15.3771 56.6111 15.7182V23.6144Z" fill="#543C52" stroke="#543C52" stroke-width="0.75"/>
<path d="M53.6203 17.8176H51.3214C50.9797 17.8176 50.7029 17.5406 50.7029 17.199C50.7029 16.8575 50.9797 16.5805 51.3214 16.5805H53.6203C53.962 16.5805 54.2388 16.8575 54.2388 17.199C54.2388 17.5406 53.9618 17.8176 53.6203 17.8176Z" fill="#F55951"/>
<path d="M53.6203 20.0916H46.3732C46.0315 20.0916 45.7546 19.8146 45.7546 19.473C45.7546 19.1315 46.0315 18.8545 46.3732 18.8545H53.6203C53.962 18.8545 54.2389 19.1315 54.2389 19.473C54.2389 19.8146 53.9619 20.0916 53.6203 20.0916Z" fill="#F55951"/>
<path d="M53.6203 22.3658H46.3732C46.0315 22.3658 45.7546 22.0888 45.7546 21.7473C45.7546 21.4057 46.0315 21.1287 46.3732 21.1287H53.6203C53.962 21.1287 54.2389 21.4057 54.2389 21.7473C54.2389 22.0888 53.9619 22.3658 53.6203 22.3658Z" fill="#F55951"/>
<defs>
<linearGradient id="paint0_linear" x1="64.0001" y1="32" x2="3.9789e-06" y2="32" gradientUnits="userSpaceOnUse">
<stop stop-color="#FFD9D9" stop-opacity="0"/>
<stop offset="0.9981" stop-color="#FFB3B3"/>
</linearGradient>
</defs>
</svg>