<?xml version="1.0" encoding="iso-8859-1"?>
<!-- Generator: Adobe Illustrator 19.0.0, SVG Export Plug-In . SVG Version: 6.00 Build 0)  -->
<svg version="1.1" id="Capa_1" xmlns="http://www.w3.org/2000/svg" xmlns:xlink="http://www.w3.org/1999/xlink" x="0px" y="0px"
	 viewBox="0 0 512.001 512.001" style="enable-background:new 0 0 512.001 512.001;" xml:space="preserve">
<g>
	<g>
		<path d="M374.435,332.134l-42.023-18.344l-23.013-23.013c-1.406-1.406-3.314-2.197-5.303-2.197c-0.173,0-0.344,0.014-0.516,0.025
			V273.49c19.675-12.742,34.055-33.23,38.542-57.665c0.042-0.155,0.293-0.408,0.466-0.478c2.334,0.162,4.696-0.036,7.022-0.585
			c10.487-2.482,18.098-12.552,18.098-23.943v-6.247c0-8.59-4.391-16.298-11.139-20.615c2.063-7.917,3.123-16.025,3.123-24.191
			c0-35.316-19.205-66.4-48.1-84.112c0-0.02,0.003-0.038,0.003-0.057C311.596,24.94,286.655,0,255.999,0
			s-55.597,24.94-55.597,55.597c0,0.019,0.003,0.038,0.003,0.057c-28.895,17.712-48.1,48.796-48.1,84.112
			c0,8.146,1.054,16.234,3.107,24.133c-6.745,4.291-11.123,12.027-11.123,20.768v6.152c0,11.392,7.611,21.461,18.098,23.943
			c2.326,0.55,4.689,0.747,7.022,0.585c0.173,0.07,0.424,0.323,0.465,0.469c4.489,24.44,18.869,44.93,38.544,57.673v15.116
			c-0.172-0.012-0.343-0.025-0.516-0.025c-1.989,0-3.897,0.791-5.303,2.197l-23.012,23.013l-42.023,18.344
			c-20.885,9.117-34.27,30.54-33.305,53.308l5.06,119.375c0.171,4.03,3.492,7.183,7.488,7.183c0.107,0,0.215-0.002,0.323-0.007
			c4.139-0.175,7.351-3.672,7.176-7.811l-5.06-119.376c-0.357-8.423,1.98-16.592,6.352-23.47l23.457,28.148
			c7.266,8.72,11.268,19.772,11.268,31.122V504.5c0,4.142,3.358,7.5,7.5,7.5c4.142,0,7.5-3.358,7.5-7.5v-83.894
			c0-14.851-5.236-29.314-14.744-40.724l-24.66-29.592c2.354-1.727,4.911-3.215,7.647-4.409l37.312-16.287l26.253,42.614
			c2.38,3.863,6.316,6.483,10.798,7.188c0.806,0.127,1.615,0.189,2.419,0.189c3.665,0,7.234-1.299,10.065-3.714l18.088-15.436V504.5
			c0,4.142,3.358,7.5,7.5,7.5c4.142,0,7.5-3.358,7.5-7.5V360.437l18.088,15.435c2.831,2.416,6.4,3.714,10.065,3.714
			c0.804,0,1.613-0.063,2.419-0.189c4.482-0.705,8.418-3.325,10.798-7.189l26.253-42.614l37.312,16.287
			c2.736,1.194,5.292,2.683,7.647,4.409l-24.66,29.592c-9.508,11.41-14.744,25.873-14.744,40.724V504.5c0,4.142,3.358,7.5,7.5,7.5
			c4.142,0,7.5-3.358,7.5-7.5v-83.894c0-11.349,4.001-22.402,11.268-31.121l23.457-28.148c4.372,6.878,6.708,15.047,6.352,23.47
			l-5.06,119.376c-0.175,4.138,3.037,7.635,7.176,7.811c0.108,0.005,0.215,0.007,0.323,0.007c3.996,0,7.317-3.152,7.488-7.183
			l5.06-119.376C408.704,362.673,395.32,341.25,374.435,332.134z M255.999,15c19.694,0,36.151,14.098,39.825,32.73
			c-12.269-4.924-25.721-7.65-39.825-7.65c-14.104,0-27.557,2.726-39.825,7.65C219.848,29.098,236.305,15,255.999,15z
			 M184.627,213.107c-1.414-7.7-8.545-13.286-16.222-12.726c-0.836,0.061-1.699-0.012-2.563-0.216
			c-3.736-0.885-6.553-4.902-6.553-9.347v-6.152c0-4.553,2.979-8.509,6.93-9.202c3.255-0.571,6.384,0.628,8.364,3.21
			c1.436,1.872,3.348,3.21,5.528,3.868c3.195,0.966,6.722,0.4,9.43-1.512c6.56-4.63,12.121-10.504,16.527-17.458
			c2.217-3.499,1.179-8.132-2.32-10.35c-3.498-2.216-8.132-1.178-10.35,2.32c-2.681,4.23-5.911,7.926-9.629,11.024
			c-3.8-3.511-8.633-5.642-13.758-6.126c-1.787-6.768-2.707-13.699-2.707-20.675c0-46.696,39.788-84.686,88.693-84.686
			s88.693,37.99,88.693,84.686c0,6.969-0.917,13.893-2.701,20.653c-2.623,0.152-5.332,0.588-7.77,1.267l-6.857-5.638
			c-3.028-2.489-6.825-3.731-10.692-3.507c-7.375,0.436-26.907,0.946-48.936-3.701c-27.274-5.754-48.178-17.139-62.131-33.837
			c-2.656-3.179-7.386-3.602-10.564-0.946c-3.179,2.656-3.602,7.386-0.946,10.564c16.163,19.344,39.898,32.431,70.546,38.897
			c23.806,5.022,44.936,4.469,52.917,3.998c0.039-0.003,0.127-0.007,0.28,0.119l10.219,8.402c2.422,1.991,5.826,2.266,8.537,0.688
			c1.374-0.799,6.628-1.749,9.178-1.242c3.955,0.787,6.937,4.694,6.937,9.089v6.247c0,4.444-2.817,8.462-6.552,9.347
			c-0.865,0.204-1.728,0.277-2.564,0.216c-7.673-0.558-14.807,5.026-16.222,12.726c-6.326,34.442-36.342,59.44-71.372,59.44
			C220.967,272.547,190.954,247.55,184.627,213.107z M220.675,364.461c-0.049,0.042-0.18,0.155-0.416,0.118
			c-0.235-0.037-0.326-0.185-0.36-0.239l-26.551-43.099l14.554-14.554l37.054,37.054L220.675,364.461z M255.999,333.571
			l-32.581-32.581v-19.733c10.12,4.059,21.124,6.291,32.581,6.291c11.457,0,22.461-2.232,32.581-6.291v19.732L255.999,333.571z
			 M292.099,364.339c-0.034,0.055-0.125,0.203-0.36,0.24c-0.236,0.037-0.366-0.076-0.416-0.117l-24.281-20.721l37.054-37.054
			l14.554,14.554L292.099,364.339z"/>
	</g>
</g>
<g>
	<g>
		<path d="M223.935,416.839h-24.048c-4.142,0-7.5,3.357-7.5,7.5c0,4.142,3.358,7.5,7.5,7.5h24.048c4.142,0,7.5-3.358,7.5-7.5
			C231.435,420.196,228.077,416.839,223.935,416.839z"/>
	</g>
</g>
<g>
</g>
<g>
</g>
<g>
</g>
<g>
</g>
<g>
</g>
<g>
</g>
<g>
</g>
<g>
</g>
<g>
</g>
<g>
</g>
<g>
</g>
<g>
</g>
<g>
</g>
<g>
</g>
<g>
</g>
</svg>
