<svg width="64" height="64" viewBox="0 0 64 64" fill="none" xmlns="http://www.w3.org/2000/svg">
<g clip-path="url(#clip0)">
<path opacity="0.5" d="M37.868 61.9907C45.8684 59.6499 62.1885 52.9024 60.7236 41.5005C59.2542 30.0647 44.508 34.5306 42.4869 24.062C41.5971 19.4536 49.573 16.3298 49.3249 11.7112C49.0052 5.76272 43.117 2.73496 38.1668 1.07271C27.6708 -2.45191 9.87272 2.82634 6.79034 15.18C4.10047 25.9605 17.2722 27.2215 13.4463 36.5952C11.296 41.8639 4.87434 41.3375 3.57859 47.7542C-0.341284 67.1666 27.2223 65.1056 37.868 61.9907Z" fill="url(#paint0_linear)"/>
<path d="M31.5051 2.84119L35.333 7.09263L32.4993 9.6442L28.6714 5.39275L31.5051 2.84119Z" fill="white"/>
<path d="M24.1719 12.8344L25.7394 9.35604L30.9579 11.7077L29.3904 15.1861L24.1719 12.8344Z" fill="white"/>
<path d="M23.2141 17.2191H28.9361V21.0331H23.2141V17.2191Z" fill="white"/>
<path d="M24.1765 25.4147L29.395 23.0629L30.9625 26.5413L25.7441 28.893L24.1765 25.4147Z" fill="white"/>
<path d="M28.6614 32.8605L32.4894 28.6092L35.3232 31.1607L31.4952 35.412L28.6614 32.8605Z" fill="white"/>
<path d="M33.0684 37.462L38.2868 35.1103L39.8544 38.5887L34.6359 40.9404L33.0684 37.462Z" fill="white"/>
<path d="M35.0637 42.9668H40.7857V46.7808H35.0637V42.9668Z" fill="white"/>
<path d="M33.0723 52.29L34.6398 48.8114L39.8582 51.1633L38.2907 54.6419L33.0723 52.29Z" fill="white"/>
<path d="M31.5215 54.3379L35.3495 58.5893L32.5157 61.1409L28.6877 56.8895L31.5215 54.3379Z" fill="white"/>
<path d="M17 19L10 12V15H3V23H10V26L17 19Z" fill="white"/>
<path d="M47 45L54 52V49H61V41H54V38L47 45Z" fill="white"/>
<path d="M36.0742 6.43451L32.2471 2.18158C32.0693 1.98431 31.8213 1.86566 31.5566 1.85199C31.2949 1.83783 31.0313 1.92963 30.835 2.10736L30.1606 2.71435L28.916 1.33099L27.4297 2.66888L28.6743 4.05224L28 4.65912C27.5898 5.02826 27.5566 5.66058 27.9258 6.07123L31.7529 10.3242C31.9307 10.5214 32.1787 10.6401 32.4434 10.6538C32.4609 10.6547 32.4785 10.6552 32.4961 10.6552C32.7422 10.6552 32.9814 10.5639 33.165 10.3984L33.8394 9.79138L35.084 11.1747L36.5703 9.83685L35.3258 8.45349L36 7.84662C36.4102 7.47748 36.4434 6.84515 36.0742 6.43451ZM32.5703 8.2431L30.0811 5.4765L31.4297 4.26263L33.9189 7.02923L32.5703 8.2431Z" fill="#F55951"/>
<path d="M25.3775 8.4261C25.1294 8.51985 24.9292 8.70881 24.8198 8.95051L24.4475 9.77717L22.7515 9.01301L21.9292 10.8363L23.626 11.6008L23.2534 12.4281C23.0269 12.9315 23.2515 13.5233 23.7544 13.7503L28.9702 16.1009C29.104 16.161 29.2437 16.1898 29.3804 16.1898C29.7622 16.1898 30.1265 15.9705 30.2935 15.6004L30.6663 14.7732L32.3618 15.5374L33.1841 13.7142L31.4882 12.9497L31.8609 12.1229C31.9693 11.8807 31.9781 11.6058 31.8843 11.3577C31.7896 11.1097 31.6011 10.909 31.3599 10.8001L26.1431 8.44953C25.9009 8.33967 25.6255 8.33235 25.3775 8.4261ZM29.6265 12.2127L28.8804 13.8665L25.4878 12.3377L26.2329 10.6839L29.6265 12.2127Z" fill="#F55951"/>
<path d="M20.3542 20.1263H22.2146V21.0336C22.2146 21.5858 22.6619 22.0336 23.2146 22.0336H28.9363C29.489 22.0336 29.9363 21.5858 29.9363 21.0336V20.1263H31.7976V18.1263H29.9363V17.2191C29.9363 16.6669 29.489 16.2191 28.9363 16.2191H23.2146C22.6619 16.2191 22.2146 16.6669 22.2146 17.2191V18.1263H20.3542V20.1263ZM24.2146 18.2191H27.9363V20.0336H24.2146V18.2191Z" fill="#F55951"/>
<path d="M22.7515 29.2396L24.4473 28.4755L24.8198 29.3026C24.9292 29.5443 25.1294 29.7333 25.3775 29.827C25.4917 29.8705 25.6118 29.892 25.732 29.892C25.8726 29.892 26.0122 29.8627 26.1431 29.8036L31.3599 27.453C31.6011 27.3441 31.7896 27.1434 31.8843 26.8954C31.978 26.6473 31.9693 26.3724 31.8609 26.1302L31.4882 25.3034L33.1841 24.5389L32.3618 22.7157L30.6663 23.4799L30.2935 22.6527C30.0659 22.1498 29.4771 21.9232 28.9702 22.1522L23.7544 24.5023C23.2515 24.7289 23.0269 25.3212 23.2534 25.8246L23.626 26.6519L21.9292 27.4164L22.7515 29.2396ZM28.8804 24.3861L29.6265 26.0404L26.2329 27.5692L25.4878 25.9149L28.8804 24.3861Z" fill="#F55951"/>
<path d="M28.916 36.9222L30.1606 35.5388L30.835 36.1458C31.0185 36.3118 31.2578 36.4026 31.5039 36.4026C31.5215 36.4026 31.5391 36.4021 31.5566 36.4012C31.8213 36.3875 32.0693 36.2689 32.2471 36.0716L36.0742 31.8186C36.4433 31.4079 36.4101 30.7756 36 30.4064L35.3257 29.7996L36.5703 28.4162L35.084 27.0782L33.8394 28.4616L33.165 27.8546C32.9687 27.6769 32.709 27.5836 32.4433 27.5993C32.1787 27.6129 31.9306 27.7316 31.7529 27.9289L27.9258 32.1819C27.5566 32.5925 27.5898 33.2248 28 33.594L28.6743 34.2009L27.4297 35.5843L28.916 36.9222ZM32.5703 30.0099L33.9189 31.2238L31.4297 33.9905L30.081 32.7766L32.5703 30.0099Z" fill="#F55951"/>
<path d="M41.2497 34.7605L39.5539 35.5246L39.1814 34.6975C39.072 34.4558 38.8718 34.2668 38.6238 34.1731C38.3757 34.0788 38.1003 34.0871 37.8581 34.1965L32.6413 36.5471C32.4001 36.656 32.2117 36.8567 32.1169 37.1047C32.0232 37.3528 32.032 37.6277 32.1404 37.8699L32.5131 38.6967L30.8171 39.4612L31.6394 41.2844L33.3349 40.5202L33.7078 41.3474C33.8748 41.7175 34.239 41.9368 34.6209 41.9368C34.7576 41.9368 34.8972 41.9079 35.031 41.8479L40.2468 39.4978C40.7498 39.2712 40.9744 38.6789 40.7478 38.1755L40.3753 37.3482L42.072 36.5837L41.2497 34.7605ZM35.1208 39.614L34.3748 37.9597L37.7683 36.4309L38.5134 38.0852L35.1208 39.614Z" fill="#F55951"/>
<path d="M43.6465 43.8738H41.7861V42.9666C41.7861 42.4143 41.3389 41.9666 40.7861 41.9666H35.0645C34.5117 41.9666 34.0645 42.4143 34.0645 42.9666V43.8738H32.2031V45.8738H34.0645V46.781C34.0645 47.3333 34.5117 47.781 35.0645 47.781H40.7861C41.3389 47.781 41.7861 47.3333 41.7861 46.781V45.8738H43.6465V43.8738ZM39.7861 45.781H36.0645V43.9666H39.7861V45.781Z" fill="#F55951"/>
<path d="M38.2693 55.6388C38.3894 55.6388 38.5095 55.6174 38.6238 55.5739C38.8718 55.4802 39.072 55.2912 39.1814 55.0495L39.5538 54.2228L41.2497 54.987L42.072 53.1638L40.3752 52.3992L40.7478 51.572C40.9743 51.0685 40.7497 50.4768 40.2468 50.2497L35.031 47.8991C34.5232 47.673 33.9343 47.8976 33.7078 48.3996L33.3349 49.2268L31.6394 48.4626L30.8171 50.2858L32.5131 51.0503L32.1404 51.8771C32.032 52.1193 32.0232 52.3942 32.1169 52.6423C32.2117 52.8903 32.4001 53.091 32.6413 53.1999L37.8581 55.5505C37.989 55.6096 38.1287 55.6388 38.2693 55.6388ZM34.3747 51.7873L35.1208 50.1335L38.5134 51.6623L37.7683 53.3161L34.3747 51.7873Z" fill="#F55951"/>
<path d="M27.9258 57.5654L31.7529 61.8183C31.9307 62.0156 32.1787 62.1342 32.4434 62.1479C32.4609 62.1489 32.4785 62.1494 32.4961 62.1494C32.7422 62.1494 32.9814 62.058 33.165 61.8925L33.8394 61.2855L35.084 62.6689L36.5703 61.331L35.3258 59.9476L36 59.3408C36.4102 58.9716 36.4434 58.3393 36.0742 57.9287L32.2471 53.6757C32.0693 53.4785 31.8213 53.3598 31.5566 53.3461C31.2949 53.3271 31.0313 53.4238 30.835 53.6015L30.1606 54.2085L28.916 52.8251L27.4297 54.163L28.6743 55.5464L28 56.1533C27.5898 56.5224 27.5566 57.1547 27.9258 57.5654ZM31.4297 55.7568L33.919 58.5234L32.5703 59.7373L30.0811 56.9707L31.4297 55.7568Z" fill="#F55951"/>
<path d="M3 23.9998H9V25.9998C9 26.4041 9.24316 26.7689 9.61719 26.9237C9.74121 26.9749 9.87109 26.9998 10 26.9998C10.2598 26.9998 10.5156 26.8983 10.707 26.7069L17.707 19.7068C18.0976 19.3162 18.0976 18.6834 17.707 18.2927L10.707 11.2927C10.4209 11.0066 9.99219 10.9216 9.61719 11.0759C9.24316 11.2307 9 11.5954 9 11.9997V13.9997H3C2.44727 13.9997 2 14.4475 2 14.9998V22.9998C2 23.5521 2.44727 23.9998 3 23.9998ZM4 15.9998H10C10.5527 15.9998 11 15.552 11 14.9998V14.4138L15.5859 18.9998L11 23.5857V22.9998C11 22.4476 10.5527 21.9998 10 21.9998H4V15.9998Z" fill="#543C52"/>
<path d="M61 40.0004H55V38.0004C55 37.5961 54.7568 37.2314 54.3828 37.0766C54.0088 36.9213 53.5791 37.0068 53.293 37.2934L46.293 44.2934C45.9023 44.684 45.9023 45.3168 46.293 45.7075L53.293 52.7075C53.4844 52.8989 53.7402 53.0004 54 53.0004C54.1289 53.0004 54.2588 52.9755 54.3828 52.9243C54.7568 52.7695 55 52.4047 55 52.0004V50.0004H61C61.5527 50.0004 62 49.5527 62 49.0004V41.0004C62 40.4482 61.5527 40.0004 61 40.0004ZM60 48.0004H54C53.4473 48.0004 53 48.4482 53 49.0004V49.5864L48.4141 45.0004L53 40.4145V41.0004C53 41.5527 53.4473 42.0004 54 42.0004H60V48.0004Z" fill="#543C52"/>
<path d="M43.4492 10.8935L43 10L42.5527 9.10547C42.2852 9.23926 36 12.457 36 19C36 25.543 42.2852 28.7607 42.5527 28.8945L43.4492 27.1064C43.3945 27.0791 38 24.2925 38 19C38 13.7075 43.3945 10.9209 43.4492 10.8935Z" fill="#543C52"/>
<path d="M20.5508 53.1066L21 54.0001L21.4473 54.8947C21.7148 54.7609 28 51.5431 28 45.0001C28 38.4572 21.7148 35.2394 21.4473 35.1056L20.5508 36.8937C20.6055 36.921 26 39.7076 26 45.0001C26 50.2926 20.6055 53.0792 20.5508 53.1066Z" fill="#543C52"/>
</g>
<defs>
<linearGradient id="paint0_linear" x1="53.8277" y1="55.4285" x2="5.19922" y2="14.6244" gradientUnits="userSpaceOnUse">
<stop stop-color="#FFB3B3" stop-opacity="0"/>
<stop offset="0.2938" stop-color="#FFB3B3" stop-opacity="0.373"/>
<stop offset="0.7874" stop-color="#FFB3B3" stop-opacity="0.8"/>
</linearGradient>
<clipPath id="clip0">
<rect width="64" height="64" fill="white"/>
</clipPath>
</defs>
</svg>
