<svg width="20" height="20" viewBox="0 0 20 20" fill="none" xmlns="http://www.w3.org/2000/svg">
<g opacity="0.5">
<path d="M3.02785 9.52734L10.4068 3.12305C10.4634 3.07422 10.5357 3.04688 10.6118 3.04688H12.3404C12.4849 3.04688 12.5513 3.22656 12.4419 3.32031L5.60207 9.25781H17.0318C17.1177 9.25781 17.188 9.32812 17.188 9.41406V10.5859C17.188 10.6719 17.1177 10.7422 17.0318 10.7422H5.60403L12.4439 16.6797C12.5532 16.7754 12.4868 16.9531 12.3423 16.9531H10.5552C10.5181 16.9531 10.481 16.9395 10.4536 16.9141L3.02785 10.4727C2.96024 10.4139 2.90603 10.3412 2.86888 10.2597C2.83172 10.1782 2.8125 10.0896 2.8125 10C2.8125 9.9104 2.83172 9.82184 2.86888 9.7403C2.90603 9.65876 2.96024 9.58614 3.02785 9.52734Z" fill="#361D32"/>
</g>
</svg>
