<svg width="40" height="40" viewBox="0 0 40 40" fill="none" xmlns="http://www.w3.org/2000/svg">
<path d="M29.6328 14.6469C29.3187 13.9194 28.8657 13.2603 28.2992 12.7062C27.7323 12.1505 27.064 11.7089 26.3305 11.4055C25.5699 11.0895 24.7541 10.9278 23.9305 10.9297C22.775 10.9297 21.6477 11.2461 20.668 11.8437C20.4336 11.9867 20.2109 12.1437 20 12.3148C19.7891 12.1437 19.5664 11.9867 19.332 11.8437C18.3523 11.2461 17.225 10.9297 16.0695 10.9297C15.2375 10.9297 14.4312 11.089 13.6695 11.4055C12.9336 11.7101 12.2703 12.1484 11.7008 12.7062C11.1336 13.2596 10.6805 13.919 10.3672 14.6469C10.0414 15.4039 9.875 16.2078 9.875 17.0351C9.875 17.8156 10.0344 18.6289 10.3508 19.4562C10.6156 20.1476 10.9953 20.8648 11.4805 21.589C12.2492 22.7351 13.3062 23.9305 14.6187 25.1422C16.7937 27.1508 18.9477 28.5383 19.0391 28.5945L19.5945 28.9508C19.8406 29.1078 20.157 29.1078 20.4031 28.9508L20.9586 28.5945C21.05 28.5359 23.2016 27.1508 25.3789 25.1422C26.6914 23.9305 27.7484 22.7351 28.5172 21.589C29.0023 20.8648 29.3844 20.1476 29.6469 19.4562C29.9633 18.6289 30.1227 17.8156 30.1227 17.0351C30.125 16.2078 29.9586 15.4039 29.6328 14.6469V14.6469ZM20 27.0969C20 27.0969 11.6562 21.7508 11.6562 17.0351C11.6562 14.6469 13.632 12.7109 16.0695 12.7109C17.7828 12.7109 19.2687 13.6672 20 15.064C20.7313 13.6672 22.2172 12.7109 23.9305 12.7109C26.368 12.7109 28.3438 14.6469 28.3438 17.0351C28.3438 21.7508 20 27.0969 20 27.0969Z" fill="#F55951"/>
<path d="M23.9305 12.7109C22.2172 12.7109 20.7313 13.6672 20 15.0641C19.2687 13.6672 17.7828 12.7109 16.0695 12.7109C13.632 12.7109 11.6562 14.6469 11.6562 17.0352C11.6562 21.7508 20 27.0969 20 27.0969C20 27.0969 28.3438 21.7508 28.3438 17.0352C28.3438 14.6469 26.368 12.7109 23.9305 12.7109Z" fill="#F55951"/>
</svg>
