<svg width="20" height="20" viewBox="0 0 20 20" fill="none" xmlns="http://www.w3.org/2000/svg">
<path d="M5.9043 3.61133L8.06836 5.77734L5.70898 8.13477L5.86523 8.55664C6.33509 9.83596 7.07751 10.9978 8.04103 11.9617C9.00456 12.9255 10.1662 13.6684 11.4453 14.1387L11.8672 14.2949L11.8848 14.2773L14.2246 11.9336L16.3887 14.0996L14.3477 16.1406C14.1367 16.3496 13.8398 16.4473 13.5508 16.3984C11.248 16.0176 8.95313 14.7793 7.08789 12.9141C5.22266 11.0488 3.98438 8.75195 3.60352 6.44922C3.55469 6.16016 3.65234 5.86328 3.86328 5.65234L5.9043 3.61133Z" fill="#361D32" fill-opacity="0.15"/>
<path d="M2.86914 4.66211L4.94922 2.58398C5.20313 2.33008 5.54297 2.1875 5.90234 2.1875C6.26172 2.1875 6.60156 2.32813 6.85547 2.58398L9.0957 4.82031C9.34961 5.07422 9.49219 5.41602 9.49219 5.77539C9.49219 6.13672 9.35156 6.47461 9.0957 6.73047L7.3457 8.48242C7.74437 9.4113 8.31718 10.2553 9.0332 10.9687C9.75 11.6895 10.5879 12.2578 11.5176 12.6602L13.2676 10.9082C13.5215 10.6543 13.8613 10.5117 14.2207 10.5117C14.398 10.5111 14.5736 10.5458 14.7372 10.6139C14.9009 10.682 15.0493 10.782 15.1738 10.9082L17.416 13.1445C17.6699 13.3984 17.8125 13.7402 17.8125 14.0996C17.8125 14.4609 17.6719 14.7988 17.416 15.0547L15.3379 17.1328C14.9043 17.5664 14.3066 17.8145 13.6934 17.8145C13.5664 17.8145 13.4434 17.8047 13.3184 17.7832C10.7324 17.3574 8.16602 15.9805 6.09375 13.9102C4.02344 11.8359 2.64844 9.26953 2.21875 6.68164C2.0957 5.94727 2.3418 5.19141 2.86914 4.66211V4.66211ZM3.60352 6.44922C3.98438 8.75195 5.22266 11.0488 7.08789 12.9141C8.95313 14.7793 11.248 16.0176 13.5508 16.3984C13.8398 16.4473 14.1367 16.3496 14.3477 16.1406L16.3887 14.0996L14.2246 11.9336L11.8848 14.2773L11.8672 14.2949L11.4453 14.1387C10.1662 13.6684 9.00456 12.9255 8.04103 11.9617C7.07751 10.9978 6.33509 9.83596 5.86523 8.55664L5.70898 8.13477L8.06836 5.77734L5.9043 3.61133L3.86328 5.65234C3.65234 5.86328 3.55469 6.16016 3.60352 6.44922Z" fill="#361D32"/>
</svg>
