<svg width="14" height="14" viewBox="0 0 14 14" fill="none" xmlns="http://www.w3.org/2000/svg">
<path d="M7.00051 14L9.65211 12.7805C12.2634 11.5796 13.5518 8.60535 12.6419 5.87896C12.2246 4.6285 12.2074 3.27906 12.5928 2.01838L12.8596 1.14576L11.7138 0C10.1427 0.907102 8.5716 0.907102 7.00051 0C5.42942 0.907102 3.8583 0.907102 2.28721 0L1.14142 1.14579L1.40822 2.01841C1.79365 3.27906 1.77648 4.62853 1.35914 5.87899C0.449163 8.60535 1.73763 11.5796 4.34893 12.7806L7.00051 14Z" fill="#771AED"/>
<path d="M7 14L9.6516 12.7805C12.2629 11.5796 13.5513 8.60535 12.6414 5.87896C12.224 4.6285 12.2069 3.27906 12.5923 2.01838L12.8591 1.14576L11.7133 0C10.1422 0.907102 8.57109 0.907102 7 0C7 1.59876 7 14 7 14Z" fill="#4B1293"/>
<path d="M8.93874 6.94529L9.87802 8.60661L7.96965 8.62384L7.00053 10.2679L6.03145 8.62384L4.12305 8.60661L5.06233 6.94529L4.12305 5.28397L6.03145 5.26674L7.00053 3.62265L7.96965 5.26674L9.87802 5.28397L8.93874 6.94529Z" fill="#F1F1F2"/>
<path d="M8.93821 6.94529L9.87749 8.60661L7.96912 8.62384L7 10.2679V3.62265L7.96912 5.26674L9.87749 5.28397L8.93821 6.94529Z" fill="#E6E6E6"/>
</svg>
