<svg width="12" height="12" viewBox="0 0 12 12" fill="none" xmlns="http://www.w3.org/2000/svg">
<path d="M6.00508 2.23126L4.89883 4.47306L2.42383 4.83282L4.21445 6.57892L3.79141 9.04337L6.00508 7.8797L8.21875 9.0422L7.7957 6.57775L9.58633 4.83282L7.11133 4.47306L6.00508 2.23126Z" fill="white"/>
<path d="M10.6474 4.13438L7.67201 3.70196L6.34193 1.00547C6.30561 0.931645 6.24584 0.871879 6.17201 0.835551C5.98686 0.744145 5.76186 0.820317 5.66928 1.00547L4.3392 3.70196L1.36381 4.13438C1.28178 4.1461 1.20678 4.18477 1.14936 4.24336C1.07994 4.31471 1.04168 4.41071 1.043 4.51025C1.04432 4.60979 1.0851 4.70474 1.15639 4.77422L3.30912 6.87305L2.80053 9.83672C2.7886 9.90566 2.79623 9.97657 2.82255 10.0414C2.84887 10.1062 2.89283 10.1624 2.94944 10.2035C3.00605 10.2446 3.07304 10.269 3.14283 10.274C3.21262 10.279 3.28241 10.2643 3.34428 10.2316L6.00561 8.83243L8.66693 10.2316C8.73959 10.2703 8.82397 10.2832 8.90483 10.2691C9.10873 10.234 9.24584 10.0406 9.21068 9.83672L8.70209 6.87305L10.8548 4.77422C10.9134 4.7168 10.9521 4.6418 10.9638 4.55977C10.9955 4.35469 10.8525 4.16485 10.6474 4.13438ZM7.79623 6.57774L8.21928 9.04219L6.00561 7.87969L3.79193 9.04336L4.21498 6.57891L2.42436 4.83282L4.89936 4.47305L6.00561 2.23125L7.11186 4.47305L9.58686 4.83282L7.79623 6.57774Z" fill="white"/>
</svg>
