<svg width="20" height="20" viewBox="0 0 20 20" fill="none" xmlns="http://www.w3.org/2000/svg">
<circle cx="9.99935" cy="9.99999" r="8.33333" fill="#361D32" fill-opacity="0.15"/>
<path d="M10 1C7.61305 1 5.32387 1.94821 3.63604 3.63604C1.94821 5.32387 1 7.61305 1 10C1 12.3869 1.94821 14.6761 3.63604 16.364C5.32387 18.0518 7.61305 19 10 19C12.3869 19 14.6761 18.0518 16.364 16.364C18.0518 14.6761 19 12.3869 19 10C19 7.61305 18.0518 5.32387 16.364 3.63604C14.6761 1.94821 12.3869 1 10 1V1ZM2.11 10.68H4.62C4.66 11.59 4.787 12.494 5 13.38H2.84C2.43721 12.5309 2.18996 11.6164 2.11 10.68V10.68ZM10.68 5.28V2.19C11.6437 2.55622 12.4356 3.26962 12.9 4.19C13.105 4.537 13.286 4.898 13.44 5.27L10.68 5.28V5.28ZM13.9 6.63C14.132 7.513 14.27 8.418 14.31 9.33H10.68V6.63H13.9V6.63ZM9.32 2.19V5.28H6.56C6.71426 4.9077 6.89471 4.54679 7.1 4.2C7.56247 3.27585 8.35459 2.55866 9.32 2.19V2.19ZM9.32 6.63V9.33H5.7C5.74 8.418 5.878 7.513 6.11 6.63H9.32V6.63ZM4.62 9.32H2.11C2.18996 8.38359 2.43721 7.46912 2.84 6.62H5C4.78659 7.50565 4.65933 8.40985 4.62 9.32V9.32ZM5.7 10.68H9.32V13.38H6.11C5.87804 12.4971 5.7406 11.592 5.7 10.68V10.68ZM9.33 14.68V17.77C8.36632 17.4038 7.57445 16.6904 7.11 15.77C6.90471 15.4232 6.72426 15.0623 6.57 14.69L9.33 14.68V14.68ZM10.68 17.77V14.73H13.44C13.2857 15.1023 13.1053 15.4632 12.9 15.81C12.4356 16.7304 11.6437 17.4438 10.68 17.81V17.77V17.77ZM10.68 13.33V10.63H14.3C14.2594 11.542 14.122 12.4471 13.89 13.33H10.68ZM15.39 10.63H17.9C17.82 11.5664 17.5728 12.4809 17.17 13.33H15C15.21 12.46 15.337 11.573 15.38 10.68L15.39 10.63V10.63ZM15.39 9.28C15.3442 8.38631 15.2136 7.49899 15 6.63H17.16C17.563 7.48 17.81 8.394 17.89 9.33L15.39 9.28ZM16.39 5.28H14.6C14.2761 4.3703 13.8067 3.51923 13.21 2.76C14.4544 3.31858 15.5353 4.18605 16.35 5.28H16.39V5.28ZM6.79 2.76C6.19332 3.51923 5.72388 4.3703 5.4 5.28H3.65C4.46472 4.18605 5.54562 3.31858 6.79 2.76V2.76ZM3.64 14.76H5.4C5.72388 15.6697 6.19332 16.5208 6.79 17.28C5.54218 16.713 4.46095 15.8349 3.65 14.73L3.64 14.76V14.76ZM13.2 17.28C13.7967 16.5208 14.2661 15.6697 14.59 14.76H16.35C15.5303 15.8393 14.4498 16.6927 13.21 17.24L13.2 17.28Z" fill="#361D32"/>
</svg>
